<svg width="50" height="50" viewBox="0 0 50 50" fill="none" xmlns="http://www.w3.org/2000/svg">
<circle cx="25" cy="25" r="24" fill="#202020" stroke="#E7E7E7" stroke-width="2"/>
<path d="M21.9183 25.1279L21.6935 25.0973C21.119 25.0179 20.9128 24.8226 20.9128 24.5354C20.9128 24.2116 21.1501 23.9795 21.581 23.9795C21.9369 23.9795 22.2554 24.0834 22.599 24.3034C22.6301 24.3216 22.6614 24.3154 22.6863 24.2848L22.9862 23.833C23.0111 23.7962 23.0048 23.7718 22.9735 23.7474C22.6364 23.4971 22.1306 23.332 21.5998 23.332C20.7254 23.332 20.1634 23.833 20.1634 24.5843C20.1634 25.2744 20.6256 25.6595 21.4436 25.7692L21.6684 25.7997C22.2554 25.8792 22.4428 26.0748 22.4428 26.374C22.4428 26.7222 22.1493 26.9726 21.6434 26.9726C21.1689 26.9726 20.7629 26.7467 20.4882 26.5328C20.4632 26.5084 20.4258 26.5084 20.4008 26.539L20.0136 26.9788C19.9887 27.0093 20.0011 27.0458 20.0261 27.0706C20.357 27.3759 20.9627 27.62 21.5873 27.62C22.6426 27.62 23.186 27.0706 23.186 26.3313C23.186 25.6165 22.7362 25.2379 21.9183 25.1279Z" fill="#FF6F6F"/>
<path d="M26.6386 23.3984H23.9784C23.941 23.3984 23.916 23.4228 23.916 23.4596V27.4911C23.916 27.5279 23.941 27.5523 23.9784 27.5523H26.6386C26.6763 27.5523 26.7012 27.5279 26.7012 27.4911V26.966C26.7012 26.9293 26.6763 26.9048 26.6386 26.9048H24.6904L24.6529 26.8681V25.8176L24.6904 25.7808H26.3326C26.3702 25.7808 26.3952 25.7564 26.3952 25.7196V25.1943C26.3952 25.1578 26.3702 25.1334 26.3326 25.1334H24.6904L24.6529 25.0966V24.0827L24.6904 24.0462H26.6386C26.6763 24.0462 26.7012 24.0215 26.7012 23.985V23.4596C26.7012 23.4228 26.6763 23.3984 26.6386 23.3984Z" fill="#FF6F6F"/>
<path d="M28.9647 23.332C28.234 23.332 27.6845 23.6742 27.466 24.3339C27.3785 24.5904 27.3535 24.8226 27.3535 25.4761C27.3535 26.1298 27.3785 26.3618 27.466 26.6184C27.6845 27.2782 28.2341 27.62 28.9647 27.62C29.7017 27.62 30.2509 27.2782 30.4698 26.6184C30.557 26.3618 30.5823 26.1298 30.5823 25.4761C30.5823 24.8225 30.557 24.5904 30.4698 24.3339C30.2509 23.6742 29.7017 23.332 28.9647 23.332ZM29.7577 26.429C29.6391 26.7649 29.3896 26.9726 28.9646 26.9726C28.5463 26.9726 28.2964 26.7649 28.1778 26.429C28.1279 26.2763 28.1029 26.0624 28.1029 25.4762C28.1029 24.8834 28.1279 24.6758 28.1778 24.5231C28.2964 24.1872 28.5463 23.9795 28.9646 23.9795C29.3896 23.9795 29.6391 24.1872 29.7577 24.5231C29.8076 24.6758 29.8328 24.8834 29.8328 25.4762C29.8328 26.0624 29.8076 26.2763 29.7577 26.429Z" fill="#FF6F6F"/>
<circle cx="25" cy="25" r="9.16667" stroke="#FF6F6F" stroke-width="1.66667"/>
<path d="M37.1008 33.9301C37.4737 34.1998 37.9947 34.1162 38.2644 33.7433C38.5341 33.3704 38.4505 32.8494 38.0776 32.5797L37.1008 33.9301ZM31.6991 30.0229L37.1008 33.9301L38.0776 32.5797L32.6759 28.6724L31.6991 30.0229Z" fill="#FF6F6F"/>
</svg>
