<svg width="50" height="50" viewBox="0 0 50 50" fill="none" xmlns="http://www.w3.org/2000/svg">
<circle cx="25" cy="25" r="24" fill="#202020" stroke="#E7E7E7" stroke-width="2"/>
<path fill-rule="evenodd" clip-rule="evenodd" d="M18.5875 27.7971C16.8304 26.8603 16.1494 24.5656 16.2175 22.4203C20.0858 21.1168 23.5318 19.243 26.1878 15.9844C28.9528 18.537 30.0969 21.2798 30.2059 25.8555C25.4251 25.2173 21.8156 26.3579 18.5875 27.7971Z" fill="#EA5E5E"/>
<path fill-rule="evenodd" clip-rule="evenodd" d="M16.408 24.3008C16.408 24.3008 14.4739 25.0204 15.0868 26.4597C15.6997 27.8989 17.5521 26.867 17.5521 26.867C16.9937 26.1066 16.5987 25.2241 16.408 24.3008Z" fill="#EA5E5E"/>
<path fill-rule="evenodd" clip-rule="evenodd" d="M20.4277 26.9957C21.3948 28.7608 22.0213 30.6888 22.2801 32.6712L25.7262 31.1233C24.7182 29.5483 23.9146 27.8647 23.3425 26.0859C22.3482 26.3168 21.3675 26.6291 20.4277 26.9957Z" fill="#EA5E5E"/>
<path fill-rule="evenodd" clip-rule="evenodd" d="M26.6113 16.9734C26.6113 16.9734 30.3433 15.4798 31.6101 18.6435C32.7951 21.617 29.1992 23.2871 29.1992 23.2871C28.9132 22.0923 27.878 18.5348 26.6113 16.9734Z" fill="#FF6F6F"/>
<path fill-rule="evenodd" clip-rule="evenodd" d="M26.4591 16.6074L25.9551 16.811L26.2956 17.232C27.5351 18.7527 28.5294 22.2151 28.8018 23.3828L28.9108 23.858L29.3603 23.6543C30.014 23.3285 30.6134 22.894 31.131 22.3644C31.6485 21.8892 32.0027 21.251 32.1525 20.5722C32.3023 19.8797 32.2342 19.1601 31.9754 18.5083C31.7302 17.8294 31.2808 17.232 30.6814 16.8246C30.0822 16.4173 29.3739 16.2136 28.6384 16.2272C27.9029 16.2272 27.1673 16.3494 26.4591 16.6074ZM27.2627 17.1777C27.7122 17.069 28.1753 17.0147 28.6247 17.0147C29.1968 16.9875 29.7552 17.1505 30.2183 17.4764C30.6814 17.7887 31.0492 18.2503 31.2399 18.7799C31.4442 19.2958 31.4987 19.8525 31.3761 20.3956C31.2536 20.9387 30.9675 21.4276 30.5589 21.7941C30.232 22.1336 29.8642 22.4323 29.4556 22.6767C28.9789 20.7622 28.2298 18.9021 27.2627 17.1777Z" fill="#EA5E5E"/>
<path fill-rule="evenodd" clip-rule="evenodd" d="M19.2828 26.3987C17.5258 25.4619 16.8447 23.1672 16.9128 21.0219C20.7811 19.7184 24.2271 17.8446 26.8831 14.5859C29.6481 17.1386 30.7923 19.8813 30.9012 24.4571C26.1204 23.8325 22.5109 24.9731 19.2828 26.3987Z" fill="white"/>
<path fill-rule="evenodd" clip-rule="evenodd" d="M19.0899 26.7496L19.267 26.8447L19.4441 26.7632C22.6177 25.3511 26.159 24.2242 30.8445 24.8488L31.3076 24.903V24.4414C31.1987 19.7299 30.0137 16.9057 27.167 14.2851L26.8537 14L26.5813 14.3259C23.9661 17.5303 20.5882 19.3633 16.7881 20.6396L16.5293 20.7346V21.0062C16.4475 23.3144 17.2239 25.7449 19.1171 26.7496H19.0899ZM19.3079 25.9486C17.8641 25.066 17.292 23.1515 17.3056 21.3049C20.9968 20.0286 24.3066 18.2091 26.9082 15.1677C29.2781 17.4759 30.3269 20.0014 30.4768 24.0069C25.9139 23.5046 22.4406 24.5772 19.3079 25.9486Z" fill="#EA5E5E"/>
<path fill-rule="evenodd" clip-rule="evenodd" d="M17.0333 22.9375C17.0333 22.9375 15.0856 23.6571 15.7121 25.0964C16.325 26.5356 18.1774 25.5037 18.1774 25.5037C17.619 24.7434 17.224 23.8608 17.0333 22.9375Z" fill="#FF6F6F"/>
<path fill-rule="evenodd" clip-rule="evenodd" d="M17.4295 22.8523L17.3478 22.3906L16.8983 22.5536C16.5305 22.7029 16.19 22.9066 15.8904 23.1646C15.5771 23.3954 15.3592 23.7349 15.2638 24.1014C15.1685 24.4816 15.1957 24.8754 15.3592 25.2284C15.4682 25.5271 15.6725 25.7715 15.9448 25.948C16.2036 26.1245 16.5169 26.206 16.8302 26.206C17.3614 26.1925 17.8926 26.0703 18.3693 25.8394L18.7916 25.6358L18.5055 25.2556C17.9743 24.5359 17.6066 23.7213 17.4295 22.8523ZM16.7621 23.504C16.9528 24.1286 17.2116 24.7396 17.5657 25.2963C17.4159 25.3506 17.2661 25.3778 17.1162 25.4049C16.9119 25.4593 16.694 25.4457 16.5169 25.3506C16.3262 25.2691 16.1764 25.1198 16.0811 24.9297C15.9994 24.7261 15.9857 24.5088 16.0538 24.3051C16.1083 24.1014 16.2445 23.9249 16.4079 23.7892C16.5169 23.6941 16.6395 23.5991 16.7621 23.5312V23.504Z" fill="#EA5E5E"/>
<path fill-rule="evenodd" clip-rule="evenodd" d="M21.1757 25.648C22.1427 27.4131 22.7829 29.3412 23.0281 31.3236L26.4469 29.7757C25.4389 28.2142 24.6353 26.517 24.0633 24.7383C23.0689 24.9691 22.1019 25.2678 21.1484 25.648H21.1757Z" fill="white"/>
<path fill-rule="evenodd" clip-rule="evenodd" d="M21.0395 25.2822L20.6309 25.4451L20.8216 25.8252C21.775 27.5361 22.3879 29.4098 22.6331 31.3379L22.6876 31.9082L27.0735 29.9394L26.8283 29.5592C25.8339 28.0249 25.044 26.3548 24.4855 24.6168L24.3766 24.2773L24.0224 24.3588C23.0009 24.5897 22.0065 24.902 21.0395 25.2822ZM21.7342 25.8524C22.4288 25.5944 23.1235 25.3772 23.8317 25.2007C24.3493 26.735 25.044 28.215 25.8885 29.5864L23.355 30.7269C23.0826 29.0297 22.5241 27.3867 21.7342 25.8524Z" fill="#EA5E5E"/>
<path fill-rule="evenodd" clip-rule="evenodd" d="M17.8652 20.6279C17.9197 22.6239 18.6688 24.5384 19.9901 26.0455C20.0718 26.127 20.1671 26.1677 20.2761 26.1677C20.3851 26.1677 20.4804 26.127 20.5621 26.0455C20.6438 25.964 20.6847 25.869 20.6847 25.7604C20.6847 25.6518 20.6438 25.5568 20.5621 25.4753C19.3771 24.1311 18.7097 22.4067 18.6688 20.6144C18.6688 20.5057 18.628 20.4107 18.5463 20.3292C18.4782 20.2614 18.3692 20.207 18.2603 20.207C18.1513 20.207 18.056 20.2477 17.9742 20.3292C17.9061 20.4107 17.8652 20.5057 17.8652 20.6279Z" fill="#EA5E5E"/>
<path fill-rule="evenodd" clip-rule="evenodd" d="M29.7302 34.3538L28.0957 30.3754L29.0355 29.9274L28.695 29.072C30.5746 28.909 34.225 28.651 34.7017 29.7237C35.1784 30.7964 32.9855 33.8649 31.5553 35.4672L30.6155 33.9328L29.7302 34.3538Z" fill="#EA5E5E"/>
<path fill-rule="evenodd" clip-rule="evenodd" d="M26.4618 31.9755C27.2654 31.3237 28.178 30.7941 29.1587 30.4411L29.5265 30.3054L29.2404 29.5586L28.8727 29.7079C27.8102 30.1017 26.8296 30.6584 25.9578 31.378L25.6582 31.636L26.1622 32.247L26.4618 31.9755Z" fill="#EA5E5E"/>
<path fill-rule="evenodd" clip-rule="evenodd" d="M27.1259 32.8897C27.8751 32.3602 28.7059 31.9529 29.564 31.6678L29.9318 31.532L29.6594 30.7852L29.2916 30.9209C28.3518 31.2333 27.4528 31.6813 26.6492 32.2516L26.3359 32.4824L26.799 33.1206L27.1259 32.8897Z" fill="#EA5E5E"/>
<path fill-rule="evenodd" clip-rule="evenodd" d="M27.7257 33.8544C28.4476 33.4471 29.2239 33.1212 30.0276 32.8904L30.409 32.7682L30.1638 32.0078L29.7824 32.13C28.9107 32.3744 28.0798 32.7274 27.3035 33.1755L26.9629 33.3792L27.3852 34.0581L27.7257 33.8544Z" fill="#EA5E5E"/>
<path fill-rule="evenodd" clip-rule="evenodd" d="M30.3025 33.1727L28.668 29.1944L29.6078 28.7328L29.0357 27.212C30.9153 27.0491 34.7836 27.3614 35.3012 28.5291C35.8188 29.6968 33.5033 32.6703 32.0595 34.2589L31.215 32.7383L30.3161 33.1456L30.3025 33.1727Z" fill="white"/>
<path fill-rule="evenodd" clip-rule="evenodd" d="M28.1621 29.0159L30.0962 33.7139L31.0361 33.2794L31.9759 34.9902L32.3437 34.5693C33.5695 33.2523 34.6183 31.7859 35.4492 30.1836C35.7488 29.6405 35.8169 29.0159 35.6535 28.4185C35.49 28.1605 35.2857 27.9297 35.0406 27.7396C34.7954 27.5631 34.5093 27.4273 34.2097 27.3594C32.5207 26.8978 30.7637 26.7213 29.0066 26.8571L28.4754 26.9114L29.1156 28.5815L28.1621 29.0431V29.0159ZM30.5185 32.6413L29.1836 29.4097L30.1235 28.9617L29.6059 27.6038C31.0769 27.536 32.5343 27.7125 33.9509 28.1062C34.1961 28.1877 34.4276 28.2827 34.6455 28.4185C34.7681 28.4864 34.8635 28.595 34.9315 28.7172C34.9997 28.9209 34.9997 29.1517 34.9315 29.3554C34.8226 29.7356 34.6592 30.0886 34.4684 30.4281C33.8147 31.555 33.0519 32.6141 32.1938 33.5917L31.4038 32.2475L30.5185 32.6413Z" fill="#EA5E5E"/>
<path fill-rule="evenodd" clip-rule="evenodd" d="M31.4596 29.4648C31.7047 29.4648 31.9362 29.5599 32.0997 29.7228C32.2632 29.8858 32.3585 30.1166 32.3585 30.361C32.3585 30.6054 32.2632 30.8362 32.0997 30.9992C31.9362 31.1621 31.7047 31.2572 31.4596 31.2572C31.2144 31.2572 30.9828 31.1621 30.8194 30.9992C30.6559 30.8362 30.5605 30.6054 30.5605 30.361C30.5605 30.1166 30.6559 29.8858 30.8194 29.7228C30.9964 29.5599 31.228 29.4648 31.4596 29.4648Z" fill="#FF6F6F"/>
<path fill-rule="evenodd" clip-rule="evenodd" d="M31.4589 29.0742C31.2 29.0742 30.9412 29.1421 30.7369 29.2914C30.519 29.4272 30.3556 29.6309 30.2466 29.8753C30.1513 30.1197 30.124 30.3777 30.1649 30.6221C30.2193 30.8801 30.3419 31.1109 30.519 31.2874C30.6961 31.4639 30.9412 31.5997 31.1864 31.6404C31.4452 31.6947 31.704 31.6676 31.9492 31.5725C32.1943 31.4775 32.3987 31.301 32.5348 31.0973C32.6847 30.8801 32.7528 30.6357 32.7528 30.3777C32.7528 30.0383 32.6166 29.7124 32.3714 29.468C32.1263 29.21 31.7994 29.0742 31.4589 29.0742ZM31.4589 29.8617C31.5269 29.8617 31.5951 29.8753 31.6495 29.9025C31.704 29.9296 31.7585 29.9703 31.813 30.0111C31.8538 30.0518 31.8947 30.1061 31.922 30.174C31.9492 30.2283 31.9628 30.2962 31.9492 30.3641C31.9492 30.4592 31.922 30.5542 31.8674 30.6357C31.813 30.7171 31.7312 30.7715 31.6495 30.8122C31.5542 30.8529 31.4589 30.8529 31.3635 30.8393C31.2681 30.8258 31.1864 30.7715 31.1183 30.7035C31.0502 30.6357 31.0094 30.5542 30.9821 30.4592C30.9685 30.3641 30.9685 30.2691 31.0094 30.174C31.0502 30.079 31.1047 30.0111 31.1864 29.9568C31.2681 29.9025 31.3635 29.8617 31.4589 29.8617Z" fill="#EA5E5E"/>
<path fill-rule="evenodd" clip-rule="evenodd" d="M32.3702 27.7394C33.3237 28.4861 33.9229 30.2105 33.9502 31.3375C33.9502 31.4461 33.9911 31.5411 34.0728 31.6226C34.1409 31.6905 34.2499 31.7448 34.3588 31.7448C34.4678 31.7448 34.5631 31.7041 34.6448 31.6226C34.7129 31.5547 34.7674 31.4461 34.7674 31.3375C34.7674 30.0068 34.0047 27.9973 32.8878 27.1283C32.8469 27.1012 32.7924 27.074 32.7515 27.0604C32.6971 27.0469 32.6426 27.0469 32.5881 27.0469C32.5336 27.0469 32.4792 27.074 32.4383 27.1012C32.3975 27.1283 32.3566 27.1691 32.3157 27.2098C32.2612 27.2912 32.234 27.3999 32.2476 27.4949C32.234 27.59 32.2884 27.685 32.3702 27.7394Z" fill="#EA5E5E"/>
</svg>
