<svg width="118" height="38" viewBox="0 0 118 38" fill="none" xmlns="http://www.w3.org/2000/svg">
<mask id="path-1-outside-1_605_698" maskUnits="userSpaceOnUse" x="0" y="0" width="118" height="31" fill="black">
<rect fill="white" width="118" height="31"/>
<path d="M10.5447 24.2313C11.305 24.2313 11.932 24.1046 12.4256 23.8511C12.9191 23.5843 13.2526 23.3709 13.4261 23.2108L16.2074 27.3328C15.994 27.5063 15.6271 27.733 15.1069 28.0132C14.5866 28.28 13.933 28.5134 13.1459 28.7135C12.3722 28.9136 11.4851 29.0137 10.4846 29.0137C8.60371 29.0137 6.94957 28.6602 5.5222 27.9531C4.09484 27.2328 2.98097 26.219 2.18058 24.9117C1.39353 23.6044 1 22.0703 1 20.3094C1 18.5352 1.39353 17.0011 2.18058 15.7072C2.98097 14.4132 4.09484 13.4127 5.5222 12.7057C6.94957 11.9854 8.60371 11.6252 10.4846 11.6252C11.4718 11.6252 12.3522 11.7319 13.1259 11.9453C13.913 12.1454 14.5733 12.3789 15.1069 12.6457C15.6405 12.8991 16.014 13.1192 16.2274 13.306L13.386 17.468C13.2927 17.3746 13.1192 17.2413 12.8658 17.0678C12.6257 16.8944 12.3122 16.741 11.9253 16.6076C11.5385 16.4742 11.0782 16.4075 10.5447 16.4075C9.891 16.4075 9.27737 16.5743 8.70376 16.9078C8.14348 17.2413 7.68993 17.7015 7.34309 18.2884C6.99626 18.8754 6.82284 19.549 6.82284 20.3094C6.82284 21.0698 6.99626 21.7501 7.34309 22.3504C7.68993 22.9374 8.14348 23.3976 8.70376 23.7311C9.27737 24.0646 9.891 24.2313 10.5447 24.2313Z"/>
<path d="M22.3617 28.5334H16.2587V1H22.3617V28.5334Z"/>
<path d="M32.2465 29.0137C30.4456 29.0137 28.8448 28.6468 27.4441 27.9131C26.0568 27.1661 24.9629 26.1456 24.1625 24.8516C23.3755 23.5443 22.982 22.0503 22.982 20.3694C22.982 18.6886 23.3755 17.1946 24.1625 15.8873C24.9629 14.5666 26.0568 13.5261 27.4441 12.7657C28.8448 12.0054 30.4456 11.6252 32.2465 11.6252C34.0474 11.6252 35.6348 12.0054 37.0088 12.7657C38.3828 13.5261 39.4567 14.5666 40.2304 15.8873C41.0041 17.1946 41.3909 18.6886 41.3909 20.3694C41.3909 22.0503 41.0041 23.5443 40.2304 24.8516C39.4567 26.1456 38.3828 27.1661 37.0088 27.9131C35.6348 28.6468 34.0474 29.0137 32.2465 29.0137ZM32.2465 24.0112C32.9402 24.0112 33.5404 23.8578 34.0474 23.551C34.5543 23.2442 34.9478 22.8106 35.2279 22.2504C35.5081 21.6901 35.6481 21.0564 35.6481 20.3494C35.6481 19.6291 35.5081 18.9888 35.2279 18.4285C34.9478 17.8682 34.5543 17.428 34.0474 17.1079C33.5404 16.7877 32.9402 16.6276 32.2465 16.6276C31.5528 16.6276 30.9458 16.7877 30.4256 17.1079C29.9187 17.428 29.5185 17.8682 29.225 18.4285C28.9449 18.9888 28.8048 19.6291 28.8048 20.3494C28.8048 21.0564 28.9449 21.6901 29.225 22.2504C29.5185 22.8106 29.9187 23.2442 30.4256 23.551C30.9458 23.8578 31.5528 24.0112 32.2465 24.0112Z"/>
<path d="M54.9016 28.5334V25.8721C54.7815 26.1389 54.4747 26.5258 53.9811 27.0327C53.5009 27.5396 52.8606 27.9998 52.0602 28.4134C51.2598 28.8136 50.326 29.0137 49.2588 29.0137C47.6581 29.0137 46.2574 28.6268 45.0568 27.8531C43.8562 27.066 42.9224 26.0189 42.2554 24.7116C41.5884 23.3909 41.2549 21.9302 41.2549 20.3294C41.2549 18.7286 41.5884 17.2746 42.2554 15.9673C42.9224 14.6467 43.8562 13.5928 45.0568 12.8058C46.2574 12.0187 47.6581 11.6252 49.2588 11.6252C50.286 11.6252 51.1864 11.7919 51.9602 12.1254C52.7339 12.4456 53.3608 12.8324 53.8411 13.286C54.3213 13.7262 54.6548 14.1331 54.8416 14.5066V12.1054H60.8845V28.5334H54.9016ZM47.2178 20.3294C47.2178 21.0765 47.3913 21.7501 47.7381 22.3504C48.0849 22.9374 48.5452 23.3976 49.1188 23.7311C49.7057 24.0646 50.3527 24.2313 51.0597 24.2313C51.7934 24.2313 52.4404 24.0646 53.0007 23.7311C53.5609 23.3976 54.0012 22.9374 54.3213 22.3504C54.6548 21.7501 54.8216 21.0765 54.8216 20.3294C54.8216 19.5824 54.6548 18.9154 54.3213 18.3284C54.0012 17.7282 53.5609 17.2613 53.0007 16.9278C52.4404 16.5809 51.7934 16.4075 51.0597 16.4075C50.3527 16.4075 49.7057 16.5809 49.1188 16.9278C48.5452 17.2613 48.0849 17.7282 47.7381 18.3284C47.3913 18.9154 47.2178 19.5824 47.2178 20.3294Z"/>
<path d="M73.5488 12.1054H80.4322L72.6884 19.9492L81.2326 28.5334H74.1891L67.846 21.9302V28.5334H61.7631V1H67.846V17.8282L73.5488 12.1054Z"/>
<path d="M84.5207 21.61C84.5607 22.197 84.7475 22.7173 85.081 23.1708C85.4145 23.6244 85.8747 23.9845 86.4617 24.2513C87.062 24.5048 87.769 24.6315 88.5827 24.6315C89.3564 24.6315 90.0501 24.5515 90.6637 24.3914C91.2907 24.2313 91.8309 24.0312 92.2845 23.7911C92.7514 23.551 93.1116 23.3042 93.365 23.0507L95.7262 26.8126C95.3927 27.1728 94.9191 27.5263 94.3055 27.8731C93.7052 28.2066 92.9115 28.4801 91.9243 28.6935C90.9372 28.9069 89.6899 29.0137 88.1825 29.0137C86.3683 29.0137 84.7542 28.6735 83.3401 27.9932C81.9261 27.3128 80.8122 26.3123 79.9985 24.9917C79.1848 23.6711 78.7779 22.0569 78.7779 20.1493C78.7779 18.5486 79.1247 17.1079 79.8184 15.8272C80.5254 14.5333 81.5459 13.5128 82.8799 12.7657C84.2139 12.0054 85.8213 11.6252 87.7023 11.6252C89.4898 11.6252 91.0372 11.952 92.3445 12.6057C93.6652 13.2593 94.679 14.2331 95.386 15.5271C96.1064 16.8077 96.4665 18.4085 96.4665 20.3294C96.4665 20.4361 96.4599 20.6496 96.4465 20.9697C96.4465 21.2899 96.4332 21.5033 96.4065 21.61H84.5207ZM90.7437 18.4285C90.7304 18.0016 90.617 17.5814 90.4036 17.1679C90.1901 16.741 89.87 16.3942 89.4431 16.1274C89.0162 15.8472 88.4693 15.7072 87.8023 15.7072C87.1353 15.7072 86.5684 15.8406 86.1015 16.1074C85.6479 16.3608 85.3011 16.6943 85.061 17.1079C84.8209 17.5214 84.6875 17.9616 84.6608 18.4285H90.7437Z"/>
<path d="M104.252 29.0137C102.665 29.0137 101.284 28.6268 100.11 27.8531C98.9363 27.066 98.0225 26.0189 97.3689 24.7116C96.7285 23.3909 96.4084 21.9302 96.4084 20.3294C96.4084 18.7286 96.7285 17.2746 97.3689 15.9673C98.0225 14.6467 98.9363 13.5928 100.11 12.8058C101.284 12.0187 102.665 11.6252 104.252 11.6252C105.306 11.6252 106.24 11.7919 107.054 12.1254C107.867 12.4456 108.528 12.8324 109.035 13.286C109.541 13.7262 109.848 14.1331 109.955 14.5066V1H116.038V28.5334H110.015V25.8721C109.762 26.3657 109.348 26.8593 108.774 27.3528C108.201 27.8331 107.527 28.2266 106.753 28.5334C105.98 28.8536 105.146 29.0137 104.252 29.0137ZM106.113 24.2313C106.847 24.2313 107.5 24.0646 108.074 23.7311C108.661 23.3976 109.121 22.9374 109.455 22.3504C109.788 21.7501 109.955 21.0765 109.955 20.3294C109.955 19.5824 109.788 18.9154 109.455 18.3284C109.121 17.7282 108.661 17.2613 108.074 16.9278C107.5 16.5809 106.847 16.4075 106.113 16.4075C105.406 16.4075 104.766 16.5809 104.192 16.9278C103.632 17.2613 103.185 17.7282 102.852 18.3284C102.531 18.9154 102.371 19.5824 102.371 20.3294C102.371 21.0765 102.531 21.7501 102.852 22.3504C103.185 22.9374 103.632 23.3976 104.192 23.7311C104.766 24.0646 105.406 24.2313 106.113 24.2313Z"/>
</mask>
<path d="M10.5447 24.2313C11.305 24.2313 11.932 24.1046 12.4256 23.8511C12.9191 23.5843 13.2526 23.3709 13.4261 23.2108L16.2074 27.3328C15.994 27.5063 15.6271 27.733 15.1069 28.0132C14.5866 28.28 13.933 28.5134 13.1459 28.7135C12.3722 28.9136 11.4851 29.0137 10.4846 29.0137C8.60371 29.0137 6.94957 28.6602 5.5222 27.9531C4.09484 27.2328 2.98097 26.219 2.18058 24.9117C1.39353 23.6044 1 22.0703 1 20.3094C1 18.5352 1.39353 17.0011 2.18058 15.7072C2.98097 14.4132 4.09484 13.4127 5.5222 12.7057C6.94957 11.9854 8.60371 11.6252 10.4846 11.6252C11.4718 11.6252 12.3522 11.7319 13.1259 11.9453C13.913 12.1454 14.5733 12.3789 15.1069 12.6457C15.6405 12.8991 16.014 13.1192 16.2274 13.306L13.386 17.468C13.2927 17.3746 13.1192 17.2413 12.8658 17.0678C12.6257 16.8944 12.3122 16.741 11.9253 16.6076C11.5385 16.4742 11.0782 16.4075 10.5447 16.4075C9.891 16.4075 9.27737 16.5743 8.70376 16.9078C8.14348 17.2413 7.68993 17.7015 7.34309 18.2884C6.99626 18.8754 6.82284 19.549 6.82284 20.3094C6.82284 21.0698 6.99626 21.7501 7.34309 22.3504C7.68993 22.9374 8.14348 23.3976 8.70376 23.7311C9.27737 24.0646 9.891 24.2313 10.5447 24.2313Z" fill="#E4E1DA"/>
<path d="M22.3617 28.5334H16.2587V1H22.3617V28.5334Z" fill="#E4E1DA"/>
<path d="M32.2465 29.0137C30.4456 29.0137 28.8448 28.6468 27.4441 27.9131C26.0568 27.1661 24.9629 26.1456 24.1625 24.8516C23.3755 23.5443 22.982 22.0503 22.982 20.3694C22.982 18.6886 23.3755 17.1946 24.1625 15.8873C24.9629 14.5666 26.0568 13.5261 27.4441 12.7657C28.8448 12.0054 30.4456 11.6252 32.2465 11.6252C34.0474 11.6252 35.6348 12.0054 37.0088 12.7657C38.3828 13.5261 39.4567 14.5666 40.2304 15.8873C41.0041 17.1946 41.3909 18.6886 41.3909 20.3694C41.3909 22.0503 41.0041 23.5443 40.2304 24.8516C39.4567 26.1456 38.3828 27.1661 37.0088 27.9131C35.6348 28.6468 34.0474 29.0137 32.2465 29.0137ZM32.2465 24.0112C32.9402 24.0112 33.5404 23.8578 34.0474 23.551C34.5543 23.2442 34.9478 22.8106 35.2279 22.2504C35.5081 21.6901 35.6481 21.0564 35.6481 20.3494C35.6481 19.6291 35.5081 18.9888 35.2279 18.4285C34.9478 17.8682 34.5543 17.428 34.0474 17.1079C33.5404 16.7877 32.9402 16.6276 32.2465 16.6276C31.5528 16.6276 30.9458 16.7877 30.4256 17.1079C29.9187 17.428 29.5185 17.8682 29.225 18.4285C28.9449 18.9888 28.8048 19.6291 28.8048 20.3494C28.8048 21.0564 28.9449 21.6901 29.225 22.2504C29.5185 22.8106 29.9187 23.2442 30.4256 23.551C30.9458 23.8578 31.5528 24.0112 32.2465 24.0112Z" fill="#E4E1DA"/>
<path d="M54.9016 28.5334V25.8721C54.7815 26.1389 54.4747 26.5258 53.9811 27.0327C53.5009 27.5396 52.8606 27.9998 52.0602 28.4134C51.2598 28.8136 50.326 29.0137 49.2588 29.0137C47.6581 29.0137 46.2574 28.6268 45.0568 27.8531C43.8562 27.066 42.9224 26.0189 42.2554 24.7116C41.5884 23.3909 41.2549 21.9302 41.2549 20.3294C41.2549 18.7286 41.5884 17.2746 42.2554 15.9673C42.9224 14.6467 43.8562 13.5928 45.0568 12.8058C46.2574 12.0187 47.6581 11.6252 49.2588 11.6252C50.286 11.6252 51.1864 11.7919 51.9602 12.1254C52.7339 12.4456 53.3608 12.8324 53.8411 13.286C54.3213 13.7262 54.6548 14.1331 54.8416 14.5066V12.1054H60.8845V28.5334H54.9016ZM47.2178 20.3294C47.2178 21.0765 47.3913 21.7501 47.7381 22.3504C48.0849 22.9374 48.5452 23.3976 49.1188 23.7311C49.7057 24.0646 50.3527 24.2313 51.0597 24.2313C51.7934 24.2313 52.4404 24.0646 53.0007 23.7311C53.5609 23.3976 54.0012 22.9374 54.3213 22.3504C54.6548 21.7501 54.8216 21.0765 54.8216 20.3294C54.8216 19.5824 54.6548 18.9154 54.3213 18.3284C54.0012 17.7282 53.5609 17.2613 53.0007 16.9278C52.4404 16.5809 51.7934 16.4075 51.0597 16.4075C50.3527 16.4075 49.7057 16.5809 49.1188 16.9278C48.5452 17.2613 48.0849 17.7282 47.7381 18.3284C47.3913 18.9154 47.2178 19.5824 47.2178 20.3294Z" fill="#E4E1DA"/>
<path d="M73.5488 12.1054H80.4322L72.6884 19.9492L81.2326 28.5334H74.1891L67.846 21.9302V28.5334H61.7631V1H67.846V17.8282L73.5488 12.1054Z" fill="#E4E1DA"/>
<path d="M84.5207 21.61C84.5607 22.197 84.7475 22.7173 85.081 23.1708C85.4145 23.6244 85.8747 23.9845 86.4617 24.2513C87.062 24.5048 87.769 24.6315 88.5827 24.6315C89.3564 24.6315 90.0501 24.5515 90.6637 24.3914C91.2907 24.2313 91.8309 24.0312 92.2845 23.7911C92.7514 23.551 93.1116 23.3042 93.365 23.0507L95.7262 26.8126C95.3927 27.1728 94.9191 27.5263 94.3055 27.8731C93.7052 28.2066 92.9115 28.4801 91.9243 28.6935C90.9372 28.9069 89.6899 29.0137 88.1825 29.0137C86.3683 29.0137 84.7542 28.6735 83.3401 27.9932C81.9261 27.3128 80.8122 26.3123 79.9985 24.9917C79.1848 23.6711 78.7779 22.0569 78.7779 20.1493C78.7779 18.5486 79.1247 17.1079 79.8184 15.8272C80.5254 14.5333 81.5459 13.5128 82.8799 12.7657C84.2139 12.0054 85.8213 11.6252 87.7023 11.6252C89.4898 11.6252 91.0372 11.952 92.3445 12.6057C93.6652 13.2593 94.679 14.2331 95.386 15.5271C96.1064 16.8077 96.4665 18.4085 96.4665 20.3294C96.4665 20.4361 96.4599 20.6496 96.4465 20.9697C96.4465 21.2899 96.4332 21.5033 96.4065 21.61H84.5207ZM90.7437 18.4285C90.7304 18.0016 90.617 17.5814 90.4036 17.1679C90.1901 16.741 89.87 16.3942 89.4431 16.1274C89.0162 15.8472 88.4693 15.7072 87.8023 15.7072C87.1353 15.7072 86.5684 15.8406 86.1015 16.1074C85.6479 16.3608 85.3011 16.6943 85.061 17.1079C84.8209 17.5214 84.6875 17.9616 84.6608 18.4285H90.7437Z" fill="#E4E1DA"/>
<path d="M104.252 29.0137C102.665 29.0137 101.284 28.6268 100.11 27.8531C98.9363 27.066 98.0225 26.0189 97.3689 24.7116C96.7285 23.3909 96.4084 21.9302 96.4084 20.3294C96.4084 18.7286 96.7285 17.2746 97.3689 15.9673C98.0225 14.6467 98.9363 13.5928 100.11 12.8058C101.284 12.0187 102.665 11.6252 104.252 11.6252C105.306 11.6252 106.24 11.7919 107.054 12.1254C107.867 12.4456 108.528 12.8324 109.035 13.286C109.541 13.7262 109.848 14.1331 109.955 14.5066V1H116.038V28.5334H110.015V25.8721C109.762 26.3657 109.348 26.8593 108.774 27.3528C108.201 27.8331 107.527 28.2266 106.753 28.5334C105.98 28.8536 105.146 29.0137 104.252 29.0137ZM106.113 24.2313C106.847 24.2313 107.5 24.0646 108.074 23.7311C108.661 23.3976 109.121 22.9374 109.455 22.3504C109.788 21.7501 109.955 21.0765 109.955 20.3294C109.955 19.5824 109.788 18.9154 109.455 18.3284C109.121 17.7282 108.661 17.2613 108.074 16.9278C107.5 16.5809 106.847 16.4075 106.113 16.4075C105.406 16.4075 104.766 16.5809 104.192 16.9278C103.632 17.2613 103.185 17.7282 102.852 18.3284C102.531 18.9154 102.371 19.5824 102.371 20.3294C102.371 21.0765 102.531 21.7501 102.852 22.3504C103.185 22.9374 103.632 23.3976 104.192 23.7311C104.766 24.0646 105.406 24.2313 106.113 24.2313Z" fill="#E4E1DA"/>
<path d="M10.5447 24.2313C11.305 24.2313 11.932 24.1046 12.4256 23.8511C12.9191 23.5843 13.2526 23.3709 13.4261 23.2108L16.2074 27.3328C15.994 27.5063 15.6271 27.733 15.1069 28.0132C14.5866 28.28 13.933 28.5134 13.1459 28.7135C12.3722 28.9136 11.4851 29.0137 10.4846 29.0137C8.60371 29.0137 6.94957 28.6602 5.5222 27.9531C4.09484 27.2328 2.98097 26.219 2.18058 24.9117C1.39353 23.6044 1 22.0703 1 20.3094C1 18.5352 1.39353 17.0011 2.18058 15.7072C2.98097 14.4132 4.09484 13.4127 5.5222 12.7057C6.94957 11.9854 8.60371 11.6252 10.4846 11.6252C11.4718 11.6252 12.3522 11.7319 13.1259 11.9453C13.913 12.1454 14.5733 12.3789 15.1069 12.6457C15.6405 12.8991 16.014 13.1192 16.2274 13.306L13.386 17.468C13.2927 17.3746 13.1192 17.2413 12.8658 17.0678C12.6257 16.8944 12.3122 16.741 11.9253 16.6076C11.5385 16.4742 11.0782 16.4075 10.5447 16.4075C9.891 16.4075 9.27737 16.5743 8.70376 16.9078C8.14348 17.2413 7.68993 17.7015 7.34309 18.2884C6.99626 18.8754 6.82284 19.549 6.82284 20.3094C6.82284 21.0698 6.99626 21.7501 7.34309 22.3504C7.68993 22.9374 8.14348 23.3976 8.70376 23.7311C9.27737 24.0646 9.891 24.2313 10.5447 24.2313Z" stroke="black" stroke-width="2" mask="url(#path-1-outside-1_605_698)"/>
<path d="M22.3617 28.5334H16.2587V1H22.3617V28.5334Z" stroke="black" stroke-width="2" mask="url(#path-1-outside-1_605_698)"/>
<path d="M32.2465 29.0137C30.4456 29.0137 28.8448 28.6468 27.4441 27.9131C26.0568 27.1661 24.9629 26.1456 24.1625 24.8516C23.3755 23.5443 22.982 22.0503 22.982 20.3694C22.982 18.6886 23.3755 17.1946 24.1625 15.8873C24.9629 14.5666 26.0568 13.5261 27.4441 12.7657C28.8448 12.0054 30.4456 11.6252 32.2465 11.6252C34.0474 11.6252 35.6348 12.0054 37.0088 12.7657C38.3828 13.5261 39.4567 14.5666 40.2304 15.8873C41.0041 17.1946 41.3909 18.6886 41.3909 20.3694C41.3909 22.0503 41.0041 23.5443 40.2304 24.8516C39.4567 26.1456 38.3828 27.1661 37.0088 27.9131C35.6348 28.6468 34.0474 29.0137 32.2465 29.0137ZM32.2465 24.0112C32.9402 24.0112 33.5404 23.8578 34.0474 23.551C34.5543 23.2442 34.9478 22.8106 35.2279 22.2504C35.5081 21.6901 35.6481 21.0564 35.6481 20.3494C35.6481 19.6291 35.5081 18.9888 35.2279 18.4285C34.9478 17.8682 34.5543 17.428 34.0474 17.1079C33.5404 16.7877 32.9402 16.6276 32.2465 16.6276C31.5528 16.6276 30.9458 16.7877 30.4256 17.1079C29.9187 17.428 29.5185 17.8682 29.225 18.4285C28.9449 18.9888 28.8048 19.6291 28.8048 20.3494C28.8048 21.0564 28.9449 21.6901 29.225 22.2504C29.5185 22.8106 29.9187 23.2442 30.4256 23.551C30.9458 23.8578 31.5528 24.0112 32.2465 24.0112Z" stroke="black" stroke-width="2" mask="url(#path-1-outside-1_605_698)"/>
<path d="M54.9016 28.5334V25.8721C54.7815 26.1389 54.4747 26.5258 53.9811 27.0327C53.5009 27.5396 52.8606 27.9998 52.0602 28.4134C51.2598 28.8136 50.326 29.0137 49.2588 29.0137C47.6581 29.0137 46.2574 28.6268 45.0568 27.8531C43.8562 27.066 42.9224 26.0189 42.2554 24.7116C41.5884 23.3909 41.2549 21.9302 41.2549 20.3294C41.2549 18.7286 41.5884 17.2746 42.2554 15.9673C42.9224 14.6467 43.8562 13.5928 45.0568 12.8058C46.2574 12.0187 47.6581 11.6252 49.2588 11.6252C50.286 11.6252 51.1864 11.7919 51.9602 12.1254C52.7339 12.4456 53.3608 12.8324 53.8411 13.286C54.3213 13.7262 54.6548 14.1331 54.8416 14.5066V12.1054H60.8845V28.5334H54.9016ZM47.2178 20.3294C47.2178 21.0765 47.3913 21.7501 47.7381 22.3504C48.0849 22.9374 48.5452 23.3976 49.1188 23.7311C49.7057 24.0646 50.3527 24.2313 51.0597 24.2313C51.7934 24.2313 52.4404 24.0646 53.0007 23.7311C53.5609 23.3976 54.0012 22.9374 54.3213 22.3504C54.6548 21.7501 54.8216 21.0765 54.8216 20.3294C54.8216 19.5824 54.6548 18.9154 54.3213 18.3284C54.0012 17.7282 53.5609 17.2613 53.0007 16.9278C52.4404 16.5809 51.7934 16.4075 51.0597 16.4075C50.3527 16.4075 49.7057 16.5809 49.1188 16.9278C48.5452 17.2613 48.0849 17.7282 47.7381 18.3284C47.3913 18.9154 47.2178 19.5824 47.2178 20.3294Z" stroke="black" stroke-width="2" mask="url(#path-1-outside-1_605_698)"/>
<path d="M73.5488 12.1054H80.4322L72.6884 19.9492L81.2326 28.5334H74.1891L67.846 21.9302V28.5334H61.7631V1H67.846V17.8282L73.5488 12.1054Z" stroke="black" stroke-width="2" mask="url(#path-1-outside-1_605_698)"/>
<path d="M84.5207 21.61C84.5607 22.197 84.7475 22.7173 85.081 23.1708C85.4145 23.6244 85.8747 23.9845 86.4617 24.2513C87.062 24.5048 87.769 24.6315 88.5827 24.6315C89.3564 24.6315 90.0501 24.5515 90.6637 24.3914C91.2907 24.2313 91.8309 24.0312 92.2845 23.7911C92.7514 23.551 93.1116 23.3042 93.365 23.0507L95.7262 26.8126C95.3927 27.1728 94.9191 27.5263 94.3055 27.8731C93.7052 28.2066 92.9115 28.4801 91.9243 28.6935C90.9372 28.9069 89.6899 29.0137 88.1825 29.0137C86.3683 29.0137 84.7542 28.6735 83.3401 27.9932C81.9261 27.3128 80.8122 26.3123 79.9985 24.9917C79.1848 23.6711 78.7779 22.0569 78.7779 20.1493C78.7779 18.5486 79.1247 17.1079 79.8184 15.8272C80.5254 14.5333 81.5459 13.5128 82.8799 12.7657C84.2139 12.0054 85.8213 11.6252 87.7023 11.6252C89.4898 11.6252 91.0372 11.952 92.3445 12.6057C93.6652 13.2593 94.679 14.2331 95.386 15.5271C96.1064 16.8077 96.4665 18.4085 96.4665 20.3294C96.4665 20.4361 96.4599 20.6496 96.4465 20.9697C96.4465 21.2899 96.4332 21.5033 96.4065 21.61H84.5207ZM90.7437 18.4285C90.7304 18.0016 90.617 17.5814 90.4036 17.1679C90.1901 16.741 89.87 16.3942 89.4431 16.1274C89.0162 15.8472 88.4693 15.7072 87.8023 15.7072C87.1353 15.7072 86.5684 15.8406 86.1015 16.1074C85.6479 16.3608 85.3011 16.6943 85.061 17.1079C84.8209 17.5214 84.6875 17.9616 84.6608 18.4285H90.7437Z" stroke="black" stroke-width="2" mask="url(#path-1-outside-1_605_698)"/>
<path d="M104.252 29.0137C102.665 29.0137 101.284 28.6268 100.11 27.8531C98.9363 27.066 98.0225 26.0189 97.3689 24.7116C96.7285 23.3909 96.4084 21.9302 96.4084 20.3294C96.4084 18.7286 96.7285 17.2746 97.3689 15.9673C98.0225 14.6467 98.9363 13.5928 100.11 12.8058C101.284 12.0187 102.665 11.6252 104.252 11.6252C105.306 11.6252 106.24 11.7919 107.054 12.1254C107.867 12.4456 108.528 12.8324 109.035 13.286C109.541 13.7262 109.848 14.1331 109.955 14.5066V1H116.038V28.5334H110.015V25.8721C109.762 26.3657 109.348 26.8593 108.774 27.3528C108.201 27.8331 107.527 28.2266 106.753 28.5334C105.98 28.8536 105.146 29.0137 104.252 29.0137ZM106.113 24.2313C106.847 24.2313 107.5 24.0646 108.074 23.7311C108.661 23.3976 109.121 22.9374 109.455 22.3504C109.788 21.7501 109.955 21.0765 109.955 20.3294C109.955 19.5824 109.788 18.9154 109.455 18.3284C109.121 17.7282 108.661 17.2613 108.074 16.9278C107.5 16.5809 106.847 16.4075 106.113 16.4075C105.406 16.4075 104.766 16.5809 104.192 16.9278C103.632 17.2613 103.185 17.7282 102.852 18.3284C102.531 18.9154 102.371 19.5824 102.371 20.3294C102.371 21.0765 102.531 21.7501 102.852 22.3504C103.185 22.9374 103.632 23.3976 104.192 23.7311C104.766 24.0646 105.406 24.2313 106.113 24.2313Z" stroke="black" stroke-width="2" mask="url(#path-1-outside-1_605_698)"/>
<path d="M53.3355 20.7734C53.1276 20.7734 52.959 20.6049 52.959 20.3969V20.3969C52.959 20.189 53.1276 20.0204 53.3355 20.0204H58.0419V20.7734H53.3355Z" fill="#202020"/>
<path d="M76.3032 20.7734C76.5111 20.7734 76.6797 20.6049 76.6797 20.3969V20.3969C76.6797 20.189 76.5111 20.0204 76.3032 20.0204H71.5968V20.7734H76.3032Z" fill="#202020"/>
<path d="M62.3716 17.385C64.2811 15.4993 64.8189 10.9844 64.8189 10.9844C64.8189 10.9844 65.3262 15.5255 67.1721 17.385C69.0541 19.2808 74.2316 20.3971 74.2316 20.3971C74.2316 20.3971 69.0138 21.1286 67.1721 22.8444C65.0734 24.7996 64.8189 29.8098 64.8189 29.8098C64.8189 29.8098 64.3996 24.7805 62.3716 22.8444C60.5649 21.1194 55.4062 20.3971 55.4062 20.3971C55.4062 20.3971 60.5353 19.1986 62.3716 17.385Z" fill="#202020"/>
<path d="M64.4414 8.91167C64.4414 8.70373 64.61 8.53516 64.8179 8.53516V8.53516C65.0259 8.53516 65.1944 8.70373 65.1944 8.91167V13.6181H64.4414V8.91167Z" fill="#202020"/>
<path d="M64.4414 31.8774C64.4414 32.0853 64.61 32.2539 64.8179 32.2539V32.2539C65.0259 32.2539 65.1944 32.0853 65.1944 31.8774V27.171H64.4414V31.8774Z" fill="#202020"/>
<path d="M46.3098 35.9531L45.9581 36.8477H45.5282L46.7767 33.7884H47.2478L48.4767 36.8477H48.0533L47.7038 35.9531H46.3098ZM47.0068 34.1011C46.9822 34.1821 46.9525 34.2726 46.9178 34.3725C46.8845 34.4709 46.8534 34.5578 46.8244 34.633L46.4358 35.6296H47.58L47.187 34.62C47.1667 34.5693 47.14 34.4977 47.1067 34.4051C47.0734 34.3124 47.0401 34.2111 47.0068 34.1011ZM51.5846 36.5545C51.7843 36.5545 51.9703 36.5241 52.1426 36.4634C52.3162 36.4026 52.4567 36.3201 52.5638 36.2158V35.6644H51.6497V35.317H52.9459V36.3722C52.7838 36.5372 52.5848 36.6653 52.3488 36.7565C52.1143 36.8462 51.8596 36.8911 51.5846 36.8911C51.2661 36.8911 50.9918 36.8267 50.7617 36.6978C50.5315 36.569 50.3542 36.3859 50.2297 36.1485C50.1052 35.9097 50.043 35.6282 50.043 35.3039C50.043 34.8075 50.1762 34.4232 50.4425 34.151C50.7088 33.8789 51.083 33.7428 51.565 33.7428C51.9037 33.7428 52.1787 33.8 52.3901 33.9144C52.6014 34.0287 52.7642 34.2118 52.8786 34.4637L52.4834 34.5809C52.3966 34.4072 52.2764 34.2806 52.123 34.201C51.971 34.1214 51.7814 34.0816 51.5542 34.0816C51.201 34.0816 50.931 34.1887 50.7443 34.4029C50.5576 34.6157 50.4642 34.916 50.4642 35.3039C50.4642 35.6904 50.5634 35.9958 50.7617 36.2202C50.96 36.4431 51.2343 36.5545 51.5846 36.5545ZM57.389 36.5089V36.8477H54.979V33.7884H57.3V34.1271H55.3937V35.1085H57.1697V35.4429H55.3937V36.5089H57.389ZM59.6479 34.8154V36.8477H59.2788V33.7884H59.7608L61.4153 36.4112C61.3979 36.1261 61.3892 35.9206 61.3892 35.7946V33.7884H61.7627V36.8477H61.2633L59.6262 34.2422C59.6291 34.3378 59.6335 34.4333 59.6393 34.5288C59.6451 34.6244 59.6479 34.7199 59.6479 34.8154ZM65.1984 36.5502C65.6268 36.5502 65.9489 36.3381 66.1646 35.914L66.5033 36.0834C66.3774 36.3468 66.2 36.5473 65.9713 36.6848C65.7441 36.8223 65.4799 36.8911 65.1789 36.8911C64.8691 36.8911 64.6028 36.8267 64.3799 36.6978C64.1569 36.569 63.9854 36.3859 63.8653 36.1485C63.7466 35.9097 63.6872 35.6282 63.6872 35.3039C63.6872 34.9783 63.7466 34.6989 63.8653 34.4659C63.984 34.2328 64.1548 34.054 64.3777 33.9296C64.6006 33.8051 64.8669 33.7428 65.1767 33.7428C65.5024 33.7428 65.7745 33.8065 65.9931 33.9339C66.2116 34.0613 66.3723 34.2502 66.4751 34.5006L66.0821 34.6309C66.0111 34.4528 65.8968 34.3168 65.739 34.2227C65.5827 34.1286 65.3967 34.0816 65.181 34.0816C64.8423 34.0816 64.5789 34.1908 64.3907 34.4094C64.2025 34.6265 64.1085 34.9247 64.1085 35.3039C64.1085 35.5529 64.1526 35.7715 64.2409 35.9596C64.3306 36.1464 64.4566 36.2918 64.6187 36.396C64.7822 36.4988 64.9755 36.5502 65.1984 36.5502ZM69.6958 35.5797V36.8477H69.2833V35.5797L68.1065 33.7884H68.5624L69.4939 35.2453L70.421 33.7884H70.8769L69.6958 35.5797Z" fill="#F1F45D"/>
</svg>
