<svg width="50" height="50" viewBox="0 0 50 50" fill="none" xmlns="http://www.w3.org/2000/svg">
<circle cx="25" cy="25" r="24" fill="#202020" stroke="#E7E7E7" stroke-width="2"/>
<path d="M23.5996 21.2305H27.4183V25.5682H23.5996V21.2305Z" fill="#FFE2D1"/>
<path d="M27.4365 25.9386H23.5993C23.3954 25.9386 23.2285 25.7717 23.2285 25.5678V21.2301C23.2285 21.0262 23.3954 20.8594 23.5993 20.8594H27.4179C27.6218 20.8594 27.7887 21.0262 27.7887 21.2301V25.5678C27.8072 25.7717 27.6404 25.9386 27.4365 25.9386ZM23.97 25.1971H27.0472V21.6009H23.97V25.1971Z" fill="#131313"/>
<path d="M25.3963 18.0042L22.1894 16.2617C22.1523 16.4286 22.1523 16.6139 22.1523 16.7808V20.2101C22.1523 22.0824 23.6724 23.621 25.5632 23.621C27.4354 23.621 28.974 22.1009 28.974 20.2101V18.7828L25.3963 16.6325V18.0042Z" fill="#FFE2D1"/>
<path d="M25.5453 23.9736C23.4691 23.9736 21.7637 22.2867 21.7637 20.192V16.7811C21.7637 16.5772 21.7822 16.3919 21.8193 16.2065C21.8378 16.0953 21.912 15.984 22.0232 15.9284C22.1344 15.8728 22.2642 15.8728 22.3569 15.9284L25.0077 17.3743V16.6328C25.0077 16.5031 25.0818 16.3733 25.193 16.3177C25.3043 16.2436 25.4526 16.2621 25.5638 16.3177L29.1415 18.468C29.2527 18.5422 29.3268 18.6534 29.3268 18.7832V20.2105C29.3268 22.2867 27.64 23.9736 25.5453 23.9736ZM22.5237 16.8553V20.2105C22.5237 21.8789 23.8769 23.2506 25.5638 23.2506C27.2507 23.2506 28.6039 21.8974 28.6039 20.2105V18.9871L25.7677 17.2816V18.0046C25.7677 18.1344 25.6936 18.2641 25.5823 18.3197C25.4711 18.3939 25.3228 18.3939 25.2116 18.3197L22.5237 16.8553Z" fill="#131313"/>
<path d="M25.5447 13.3711C23.8763 13.3711 22.449 14.5945 22.1895 16.2629L25.3964 18.0054V16.6336L28.9741 18.7654V16.7819C28.9555 14.8911 27.4355 13.3711 25.5447 13.3711Z" fill="#B08A77"/>
<path d="M28.956 19.1543C28.8819 19.1543 28.8263 19.1358 28.7707 19.0987L25.7676 17.3006V18.005C25.7676 18.1348 25.6935 18.2646 25.5823 18.3202C25.471 18.3943 25.3228 18.3943 25.2115 18.3202L22.0046 16.5777C21.8748 16.5035 21.8007 16.3552 21.8192 16.1884C22.1158 14.3532 23.6729 13 25.5452 13C27.6214 13 29.3268 14.6869 29.3268 16.7816V18.7836C29.3268 18.9134 29.2526 19.0431 29.1414 19.0987C29.0858 19.1358 29.0117 19.1543 28.956 19.1543ZM25.3969 16.2625C25.471 16.2625 25.5267 16.2811 25.5823 16.3182L28.5853 18.1163V16.763C28.5853 15.9474 28.2702 15.1874 27.6955 14.6127C27.1209 14.0566 26.3608 13.7415 25.5452 13.7415C24.1364 13.7415 22.9315 14.7054 22.5978 16.0586L25.0076 17.3748V16.6333C25.0076 16.5035 25.0818 16.3738 25.193 16.3182C25.2671 16.2811 25.3228 16.2625 25.3969 16.2625Z" fill="#131313"/>
<path d="M29.9022 25.5508H28.549L29.7169 28.9987L28.4563 29.9812V31.3344L25.546 34.2447L22.6542 31.2788V29.9256L21.3937 28.9431L22.5615 25.5508H21.0971C19.0394 25.5508 17.3711 27.2377 17.3711 29.2953V36.4136H33.6467V29.2953C33.6467 27.2377 31.9784 25.5693 29.9022 25.5508Z" fill="#FF6F6F"/>
<path d="M33.6464 36.785H17.3707C17.1668 36.785 17 36.6181 17 36.4142V29.2959C17 27.0344 18.8352 25.1992 21.0967 25.1992H22.5612C22.6724 25.1992 22.8021 25.2548 22.8577 25.3475C22.9134 25.4402 22.9504 25.57 22.9134 25.6812L21.8382 28.8325L22.8763 29.6481C22.969 29.7223 23.0246 29.8335 23.0246 29.9447V31.1311L25.5456 33.7078L28.0852 31.1682V29.9818C28.0852 29.8706 28.1408 29.7594 28.2335 29.6852L29.2716 28.8696L28.1965 25.6812C28.1594 25.57 28.1779 25.4402 28.2521 25.3475C28.3262 25.2548 28.4374 25.1992 28.5487 25.1992H29.9019C30.9956 25.1992 32.0336 25.6256 32.7937 26.4041C33.5722 27.1827 33.9986 28.2022 33.9986 29.2959V36.4142C34.0171 36.6181 33.8503 36.785 33.6464 36.785ZM17.7415 36.0435H33.2756V29.2959C33.2756 28.4062 32.9234 27.5534 32.2932 26.9232C31.6629 26.2929 30.8102 25.9407 29.9204 25.9407H29.0677L30.0687 28.8881C30.1243 29.0364 30.0687 29.2032 29.9389 29.2959L28.8267 30.1486V31.3165C28.8267 31.4092 28.7896 31.5019 28.7155 31.576L25.8052 34.4863C25.731 34.5605 25.6383 34.5976 25.5456 34.5976C25.453 34.5976 25.3603 34.5605 25.2861 34.4863L22.3943 31.5389C22.3202 31.4648 22.2831 31.3721 22.2831 31.2794V30.1116L21.1709 29.2589C21.0411 29.1662 21.004 28.9993 21.0411 28.851L22.0421 25.9407H21.0967C19.243 25.9407 17.7415 27.4422 17.7415 29.2959V36.0435Z" fill="#131313"/>
<path d="M22.6541 29.9441V31.2788L25.5459 34.2262L28.4562 31.3158V29.9812L29.7168 28.9987L28.5489 25.5508H22.5614L21.4121 28.9616L22.6541 29.9441Z" fill="#FF6F6F"/>
<path d="M25.5455 34.5966C25.4528 34.5966 25.3416 34.5595 25.286 34.4854L22.3942 31.5379C22.32 31.4638 22.283 31.3711 22.283 31.2784V30.1106L21.1707 29.2579C21.041 29.1652 21.0039 28.9983 21.041 28.85L22.1903 25.4392C22.2459 25.2909 22.3756 25.1797 22.5425 25.1797H28.53C28.6968 25.1797 28.8266 25.2724 28.8822 25.4392L30.05 28.8871C30.1056 29.0354 30.05 29.2023 29.9203 29.2949L28.808 30.1476V31.3155C28.808 31.4082 28.771 31.5009 28.6968 31.575L25.7865 34.4854C25.7494 34.5595 25.6567 34.5966 25.5455 34.5966ZM23.0244 31.1301L25.5455 33.6883L28.0851 31.1672V29.9808C28.0851 29.8696 28.1407 29.7584 28.2334 29.6842L29.2715 28.8686L28.2705 25.9212H22.8205L21.8381 28.8315L22.8762 29.6471C22.9688 29.7213 23.0244 29.8325 23.0244 29.9437V31.1301Z" fill="#131313"/>
<path d="M24.3772 25.5508H22.5605L24.5811 31.4271L25.4153 27.386L24.3772 25.5508Z" fill="white"/>
<path d="M24.5817 31.7985C24.4334 31.7985 24.2851 31.7058 24.2295 31.5575L22.1904 25.6812C22.1533 25.57 22.1719 25.4402 22.246 25.3475C22.3202 25.2548 22.4314 25.1992 22.5426 25.1992H24.3593C24.489 25.1992 24.6188 25.2734 24.6744 25.3846L25.7125 27.2198C25.7496 27.2939 25.7681 27.3866 25.7496 27.4793L24.9154 31.5204C24.8783 31.6872 24.7485 31.7985 24.5817 31.817C24.6002 31.7985 24.6002 31.7985 24.5817 31.7985ZM23.0802 25.9407L24.5076 30.056L25.0266 27.4608L24.1554 25.9407H23.0802Z" fill="#131313"/>
<path d="M26.4533 31.5939L28.548 25.5508H26.6387L25.582 27.386L26.4533 31.5939Z" fill="white"/>
<path d="M26.4534 31.9643H26.4348C26.268 31.9458 26.1383 31.8345 26.1012 31.6677L25.2299 27.4598C25.2114 27.3671 25.2299 27.2744 25.267 27.2002L26.3051 25.3651C26.3792 25.2538 26.4905 25.1797 26.6202 25.1797H28.5295C28.6408 25.1797 28.7705 25.2353 28.8261 25.328C28.9003 25.4207 28.9188 25.5504 28.8818 25.6617L26.8056 31.7233C26.75 31.8716 26.6202 31.9643 26.4534 31.9643ZM25.99 27.4598L26.5646 30.2218L28.0476 25.9397H26.8797L25.99 27.4598Z" fill="#131313"/>
<path d="M26.6385 25.5508H24.377L25.415 27.386L24.5809 31.4271L25.2111 33.2437L25.5448 34.2262L25.897 33.2437L26.4531 31.5939L25.5819 27.386L26.6385 25.5508Z" fill="#2B3038"/>
<path d="M25.5454 34.5966C25.3786 34.5966 25.2488 34.5039 25.1932 34.3556L24.2293 31.5565C24.2107 31.5009 24.2107 31.4267 24.2107 31.3526L25.0264 27.4598L24.0439 25.7358C23.9697 25.6246 23.9697 25.4763 24.0439 25.3651C24.118 25.2538 24.2293 25.1797 24.359 25.1797H26.6391C26.7689 25.1797 26.8986 25.2538 26.9542 25.3651C27.0284 25.4763 27.0284 25.6246 26.9542 25.7358L25.9903 27.4598L26.8245 31.5379C26.843 31.6121 26.8245 31.6677 26.8059 31.7418L25.8976 34.3556C25.842 34.5039 25.7122 34.5966 25.5454 34.5966ZM24.9708 31.4082L25.5454 33.0951L26.0644 31.575L25.4898 28.813L24.9708 31.4082ZM25.0078 25.9397L25.5083 26.7924L26.0088 25.9397H25.0078Z" fill="#131313"/>
<path d="M25.5446 36.7843C25.3407 36.7843 25.1738 36.6175 25.1738 36.4136V34.2262C25.1738 34.0223 25.3407 33.8555 25.5446 33.8555C25.7485 33.8555 25.9153 34.0223 25.9153 34.2262V36.4136C25.9153 36.6175 25.7485 36.7843 25.5446 36.7843Z" fill="#131313"/>
<path d="M31.4586 36.7835C31.2547 36.7835 31.0879 36.6167 31.0879 36.4128V30.277C31.0879 30.0731 31.2547 29.9062 31.4586 29.9062C31.6625 29.9062 31.8294 30.0731 31.8294 30.277V36.4128C31.8294 36.6167 31.6625 36.7835 31.4586 36.7835Z" fill="#131313"/>
<path d="M19.5582 36.7835C19.3543 36.7835 19.1875 36.6167 19.1875 36.4128V30.277C19.1875 30.0731 19.3543 29.9062 19.5582 29.9062C19.7622 29.9062 19.929 30.0731 19.929 30.277V36.4128C19.929 36.6167 19.7622 36.7835 19.5582 36.7835Z" fill="#131313"/>
</svg>
