<svg width="115" height="87" viewBox="0 0 115 87" fill="none" xmlns="http://www.w3.org/2000/svg">
<path d="M94.8583 2.42969C97.1084 5.00907 98.4135 8.34563 99.8011 11.4276C101.536 15.2813 103.801 18.457 104.528 23.4488C104.683 24.5107 104.774 25.1111 104.792 26.1841C104.856 30.1132 103.879 32.4866 102.009 35.8539C100.089 39.3088 96.1772 41.9978 92.6028 43.4601C86.8809 45.8009 75.7588 49.3147 75.7588 49.3147C75.7588 49.3147 69.937 52.1417 67.6487 49.9386C66.2864 48.6271 65.7347 47.8146 66.017 45.3796C66.4225 41.8824 69.4498 39.7994 73.0234 38.1813C75.3757 37.1162 79.5259 36.9816 79.5259 36.9816C79.5259 36.9816 83.5707 36.5482 85.5725 37.8454C89.0288 40.0851 87.516 44.7763 87.516 48.211C87.516 51.5493 83.8193 54.4452 81.8053 56.849C80.9831 57.8304 80.0855 58.3146 79.022 59.2964C75.9924 62.093 74.9387 64.3299 71.7757 66.9746C61.7459 75.3609 50.8197 75.6317 39.9351 77.3162C34.85 78.1032 29.6382 78.012 24.5067 78.012C22.5433 78.012 19.8596 77.9484 16.9485 78.4679C10.6211 79.5971 7.44211 82.27 2 85.3543" stroke="#202020" stroke-width="2.6057" stroke-linecap="round"/>
<path d="M30.9375 72.3987C39.1612 70.1474 47.3654 67.8482 55.5557 65.4883" stroke="#202020" stroke-width="2.6057" stroke-linecap="round"/>
<path d="M106.521 2C112.568 8.00872 107.696 13.8328 112.568 18.8441C112.734 19.0151 113 19.276 113 19.276" stroke="#202020" stroke-width="2.6057" stroke-linecap="round"/>
</svg>
