<svg width="118" height="38" viewBox="0 0 118 38" fill="none" xmlns="http://www.w3.org/2000/svg">
<path d="M10.5852 23.6979C11.3455 23.6979 11.9725 23.5712 12.4661 23.3177C12.9597 23.0509 13.2931 22.8375 13.4666 22.6774L16.2479 26.7994C16.0345 26.9728 15.6676 27.1996 15.1474 27.4797C14.6271 27.7465 13.9735 27.98 13.1864 28.1801C12.4127 28.3802 11.5256 28.4802 10.5251 28.4802C8.64421 28.4802 6.99007 28.1267 5.56271 27.4197C4.13535 26.6994 3.02147 25.6855 2.22108 24.3782C1.43403 23.0709 1.04051 21.5368 1.04051 19.776C1.04051 18.0018 1.43403 16.4677 2.22108 15.1737C3.02147 13.8798 4.13535 12.8793 5.56271 12.1723C6.99007 11.4519 8.64421 11.0918 10.5251 11.0918C11.5123 11.0918 12.3927 11.1985 13.1664 11.4119C13.9535 11.612 14.6138 11.8455 15.1474 12.1123C15.681 12.3657 16.0545 12.5858 16.2679 12.7726L13.4265 16.9346C13.3332 16.8412 13.1597 16.7078 12.9063 16.5344C12.6662 16.361 12.3527 16.2076 11.9658 16.0742C11.579 15.9408 11.1188 15.8741 10.5852 15.8741C9.93151 15.8741 9.31788 16.0408 8.74426 16.3743C8.18399 16.7078 7.73044 17.1681 7.3836 17.755C7.03676 18.342 6.86335 19.0156 6.86335 19.776C6.86335 20.5364 7.03676 21.2167 7.3836 21.817C7.73044 22.4039 8.18399 22.8642 8.74426 23.1977C9.31788 23.5312 9.93151 23.6979 10.5852 23.6979ZM22.4022 28H16.2992V0.466577H22.4022V28ZM32.287 28.4802C30.4861 28.4802 28.8853 28.1134 27.4846 27.3797C26.0973 26.6327 25.0034 25.6122 24.203 24.3182C23.416 23.0109 23.0225 21.5168 23.0225 19.836C23.0225 18.1552 23.416 16.6611 24.203 15.3538C25.0034 14.0332 26.0973 12.9927 27.4846 12.2323C28.8853 11.4719 30.4861 11.0918 32.287 11.0918C34.0879 11.0918 35.6753 11.4719 37.0493 12.2323C38.4233 12.9927 39.4972 14.0332 40.2709 15.3538C41.0446 16.6611 41.4314 18.1552 41.4314 19.836C41.4314 21.5168 41.0446 23.0109 40.2709 24.3182C39.4972 25.6122 38.4233 26.6327 37.0493 27.3797C35.6753 28.1134 34.0879 28.4802 32.287 28.4802ZM32.287 23.4778C32.9807 23.4778 33.581 23.3244 34.0879 23.0176C34.5948 22.7108 34.9883 22.2772 35.2684 21.7169C35.5486 21.1567 35.6886 20.523 35.6886 19.816C35.6886 19.0957 35.5486 18.4553 35.2684 17.8951C34.9883 17.3348 34.5948 16.8946 34.0879 16.5744C33.581 16.2543 32.9807 16.0942 32.287 16.0942C31.5933 16.0942 30.9864 16.2543 30.4661 16.5744C29.9592 16.8946 29.559 17.3348 29.2655 17.8951C28.9854 18.4553 28.8453 19.0957 28.8453 19.816C28.8453 20.523 28.9854 21.1567 29.2655 21.7169C29.559 22.2772 29.9592 22.7108 30.4661 23.0176C30.9864 23.3244 31.5933 23.4778 32.287 23.4778ZM54.9421 28V25.3387C54.822 25.6055 54.5152 25.9924 54.0216 26.4993C53.5414 27.0062 52.9011 27.4664 52.1007 27.8799C51.3003 28.2801 50.3665 28.4802 49.2993 28.4802C47.6986 28.4802 46.2979 28.0934 45.0973 27.3197C43.8967 26.5326 42.9629 25.4854 42.2959 24.1781C41.6289 22.8575 41.2954 21.3968 41.2954 19.796C41.2954 18.1952 41.6289 16.7412 42.2959 15.4339C42.9629 14.1132 43.8967 13.0594 45.0973 12.2723C46.2979 11.4853 47.6986 11.0918 49.2993 11.0918C50.3265 11.0918 51.227 11.2585 52.0007 11.592C52.7744 11.9122 53.4013 12.299 53.8816 12.7526C54.3618 13.1928 54.6953 13.5996 54.8821 13.9732V11.572H60.925V28H54.9421ZM47.2584 19.796C47.2584 20.543 47.4318 21.2167 47.7786 21.817C48.1254 22.4039 48.5857 22.8642 49.1593 23.1977C49.7462 23.5312 50.3932 23.6979 51.1002 23.6979C51.8339 23.6979 52.4809 23.5312 53.0412 23.1977C53.6014 22.8642 54.0417 22.4039 54.3618 21.817C54.6953 21.2167 54.8621 20.543 54.8621 19.796C54.8621 19.049 54.6953 18.382 54.3618 17.795C54.0417 17.1947 53.6014 16.7278 53.0412 16.3943C52.4809 16.0475 51.8339 15.8741 51.1002 15.8741C50.3932 15.8741 49.7462 16.0475 49.1593 16.3943C48.5857 16.7278 48.1254 17.1947 47.7786 17.795C47.4318 18.382 47.2584 19.049 47.2584 19.796ZM73.5893 11.572H80.4727L72.7289 19.4158L81.2731 28H74.2296L67.8865 21.3968V28H61.8036V0.466577H67.8865V17.2948L73.5893 11.572ZM84.5612 21.0766C84.6012 21.6636 84.788 22.1838 85.1215 22.6374C85.455 23.0909 85.9152 23.4511 86.5022 23.7179C87.1025 23.9714 87.8095 24.0981 88.6232 24.0981C89.3969 24.0981 90.0906 24.0181 90.7042 23.858C91.3312 23.6979 91.8715 23.4978 92.325 23.2577C92.7919 23.0176 93.1521 22.7708 93.4055 22.5173L95.7667 26.2792C95.4332 26.6393 94.9596 26.9928 94.346 27.3397C93.7457 27.6732 92.952 27.9466 91.9648 28.1601C90.9777 28.3735 89.7304 28.4802 88.223 28.4802C86.4088 28.4802 84.7947 28.1401 83.3806 27.4597C81.9666 26.7794 80.8527 25.7789 80.039 24.4583C79.2253 23.1376 78.8184 21.5235 78.8184 19.6159C78.8184 18.0151 79.1653 16.5744 79.8589 15.2938C80.5659 13.9998 81.5864 12.9793 82.9204 12.2323C84.2544 11.4719 85.8619 11.0918 87.7428 11.0918C89.5303 11.0918 91.0777 11.4186 92.385 12.0722C93.7057 12.7259 94.7195 13.6997 95.4265 14.9937C96.1469 16.2743 96.507 17.8751 96.507 19.796C96.507 19.9027 96.5004 20.1162 96.487 20.4363C96.487 20.7565 96.4737 20.9699 96.447 21.0766H84.5612ZM90.7843 17.8951C90.7709 17.4682 90.6575 17.048 90.4441 16.6345C90.2307 16.2076 89.9105 15.8607 89.4836 15.594C89.0567 15.3138 88.5098 15.1737 87.8428 15.1737C87.1758 15.1737 86.6089 15.3071 86.142 15.5739C85.6884 15.8274 85.3416 16.1609 85.1015 16.5744C84.8614 16.988 84.728 17.4282 84.7013 17.8951H90.7843ZM104.293 28.4802C102.705 28.4802 101.325 28.0934 100.151 27.3197C98.9768 26.5326 98.063 25.4854 97.4094 24.1781C96.769 22.8575 96.4489 21.3968 96.4489 19.796C96.4489 18.1952 96.769 16.7412 97.4094 15.4339C98.063 14.1132 98.9768 13.0594 100.151 12.2723C101.325 11.4853 102.705 11.0918 104.293 11.0918C105.347 11.0918 106.28 11.2585 107.094 11.592C107.908 11.9122 108.568 12.299 109.075 12.7526C109.582 13.1928 109.889 13.5996 109.995 13.9732V0.466577H116.078V28H110.056V25.3387C109.802 25.8323 109.389 26.3259 108.815 26.8194C108.241 27.2997 107.568 27.6932 106.794 28C106.02 28.3202 105.186 28.4802 104.293 28.4802ZM106.154 23.6979C106.887 23.6979 107.541 23.5312 108.115 23.1977C108.702 22.8642 109.162 22.4039 109.495 21.817C109.829 21.2167 109.995 20.543 109.995 19.796C109.995 19.049 109.829 18.382 109.495 17.795C109.162 17.1947 108.702 16.7278 108.115 16.3943C107.541 16.0475 106.887 15.8741 106.154 15.8741C105.447 15.8741 104.806 16.0475 104.233 16.3943C103.672 16.7278 103.226 17.1947 102.892 17.795C102.572 18.382 102.412 19.049 102.412 19.796C102.412 20.543 102.572 21.2167 102.892 21.817C103.226 22.4039 103.672 22.8642 104.233 23.1977C104.806 23.5312 105.447 23.6979 106.154 23.6979Z" fill="#202020"/>
<path d="M53.3765 20.2383C53.1686 20.2383 53 20.0697 53 19.8618V19.8618C53 19.6538 53.1686 19.4853 53.3765 19.4853H58.0829V20.2383H53.3765Z" fill="white"/>
<path d="M76.3442 20.2383C76.5521 20.2383 76.7207 20.0697 76.7207 19.8618V19.8618C76.7207 19.6538 76.5521 19.4853 76.3442 19.4853H71.6378V20.2383H76.3442Z" fill="white"/>
<path d="M62.4127 16.8499C64.3221 14.9641 64.86 10.4492 64.86 10.4492C64.86 10.4492 65.3672 14.9903 67.2131 16.8499C69.0951 18.7457 74.2727 19.8619 74.2727 19.8619C74.2727 19.8619 69.0548 20.5934 67.2131 22.3092C65.1144 24.2645 64.86 29.2746 64.86 29.2746C64.86 29.2746 64.4406 24.2454 62.4127 22.3092C60.6059 20.5842 55.4473 19.8619 55.4473 19.8619C55.4473 19.8619 60.5763 18.6635 62.4127 16.8499Z" fill="white"/>
<path d="M64.4824 8.37651C64.4824 8.16857 64.651 8 64.8589 8V8C65.0669 8 65.2354 8.16857 65.2354 8.37651V13.0829H64.4824V8.37651Z" fill="white"/>
<path d="M64.4824 31.3422C64.4824 31.5502 64.651 31.7188 64.8589 31.7188V31.7188C65.0669 31.7188 65.2354 31.5502 65.2354 31.3422V26.6359H64.4824V31.3422Z" fill="white"/>
<path d="M46.7903 35.418L46.4386 36.3125H46.0087L47.2571 33.2533H47.7283L48.9572 36.3125H48.5338L48.1842 35.418H46.7903ZM47.4873 33.5659C47.4627 33.647 47.433 33.7375 47.3983 33.8373C47.365 33.9358 47.3338 34.0226 47.3049 34.0979L46.9162 35.0945H48.0605L47.6675 34.0849C47.6472 34.0342 47.6204 33.9625 47.5871 33.8699C47.5539 33.7773 47.5206 33.6759 47.4873 33.5659ZM52.065 36.0194C52.2648 36.0194 52.4508 35.989 52.623 35.9282C52.7967 35.8674 52.9371 35.7849 53.0442 35.6807V35.1292H52.1302V34.7818H53.4264V35.837C53.2642 36.002 53.0652 36.1301 52.8293 36.2213C52.5948 36.3111 52.34 36.3559 52.065 36.3559C51.7466 36.3559 51.4723 36.2915 51.2421 36.1627C51.012 36.0339 50.8347 35.8508 50.7102 35.6134C50.5857 35.3745 50.5235 35.093 50.5235 34.7688C50.5235 34.2723 50.6566 33.888 50.923 33.6159C51.1893 33.3437 51.5635 33.2077 52.0455 33.2077C52.3842 33.2077 52.6592 33.2649 52.8705 33.3792C53.0819 33.4936 53.2447 33.6767 53.3591 33.9285L52.9639 34.0458C52.8771 33.8721 52.7569 33.7454 52.6035 33.6658C52.4515 33.5862 52.2619 33.5464 52.0346 33.5464C51.6814 33.5464 51.4115 33.6535 51.2248 33.8677C51.038 34.0805 50.9447 34.3809 50.9447 34.7688C50.9447 35.1553 51.0438 35.4607 51.2421 35.685C51.4404 35.9079 51.7147 36.0194 52.065 36.0194ZM57.8695 35.9738V36.3125H55.4595V33.2533H57.7805V33.592H55.8742V34.5734H57.6502V34.9077H55.8742V35.9738H57.8695ZM60.1284 34.2803V36.3125H59.7593V33.2533H60.2413L61.8958 35.8761C61.8784 35.5909 61.8697 35.3854 61.8697 35.2595V33.2533H62.2432V36.3125H61.7438L60.1067 33.7071C60.1096 33.8026 60.1139 33.8981 60.1197 33.9937C60.1255 34.0892 60.1284 34.1847 60.1284 34.2803ZM65.6789 36.015C66.1073 36.015 66.4294 35.803 66.645 35.3789L66.9838 35.5482C66.8578 35.8117 66.6805 36.0122 66.4518 36.1497C66.2246 36.2872 65.9604 36.3559 65.6593 36.3559C65.3496 36.3559 65.0832 36.2915 64.8603 36.1627C64.6374 36.0339 64.4659 35.8508 64.3457 35.6134C64.2271 35.3745 64.1677 35.093 64.1677 34.7688C64.1677 34.4431 64.2271 34.1637 64.3457 33.9307C64.4644 33.6977 64.6352 33.5189 64.8582 33.3944C65.0811 33.2699 65.3474 33.2077 65.6572 33.2077C65.9828 33.2077 66.255 33.2714 66.4735 33.3988C66.6921 33.5261 66.8528 33.715 66.9555 33.9654L66.5625 34.0957C66.4916 33.9177 66.3773 33.7816 66.2195 33.6875C66.0632 33.5934 65.8772 33.5464 65.6615 33.5464C65.3228 33.5464 65.0593 33.6557 64.8712 33.8742C64.683 34.0914 64.5889 34.3895 64.5889 34.7688C64.5889 35.0177 64.6331 35.2363 64.7214 35.4245C64.8111 35.6112 64.937 35.7567 65.0992 35.8609C65.2627 35.9637 65.456 36.015 65.6789 36.015ZM70.1763 35.0445V36.3125H69.7638V35.0445L68.587 33.2533H69.0429L69.9744 34.7102L70.9015 33.2533H71.3574L70.1763 35.0445Z" fill="#FF6F6F"/>
</svg>
