<svg width="50" height="50" viewBox="0 0 50 50" fill="none" xmlns="http://www.w3.org/2000/svg">
<circle cx="25" cy="25" r="24" fill="#202020" stroke="#E7E7E7" stroke-width="2"/>
<path fill-rule="evenodd" clip-rule="evenodd" d="M33.2614 30.2852C27.952 31.4925 22.3288 31.4925 17.0154 30.2852V19.9212C22.3248 18.7139 27.9479 18.7129 33.2614 19.9212V30.2852ZM33.8869 19.0246C28.1723 17.6579 22.0984 17.659 16.3899 19.0246L16 19.1181V31.0883L16.3899 31.1818C19.2462 31.8651 22.1897 32.2103 25.1384 32.2103C28.0881 32.2103 31.0327 31.8651 33.8869 31.1818L34.2768 31.0883V19.1181L33.8869 19.0246ZM24.123 22.9535L27.7053 25.103L24.123 27.2526V22.9535ZM23.1076 29.0457L29.6792 25.103L23.1076 21.1603V29.0457Z" fill="#FF6F6F"/>
</svg>
