<svg width="46" height="46" viewBox="0 0 46 46" fill="none" xmlns="http://www.w3.org/2000/svg">
<path d="M44.3179 25.4278C43.5711 25.0543 42.4507 24.8676 41.7038 25.2411L39.8366 25.9879V3.5813C39.8366 1.9008 38.5296 0.59375 37.0358 0.59375H33.3013C31.8076 0.59375 30.5005 1.9008 30.5005 3.39458V6.19541H25.8325C24.3387 6.19541 23.0316 7.50246 23.0316 8.99624V15.5315H18.3636C16.8698 15.5315 15.5628 16.8386 15.5628 18.3323V28.0419L9.9611 29.3489V28.7888C9.9611 27.6684 9.40093 26.7348 8.46732 26.3614L6.22666 25.2411C5.85322 23.934 4.73288 23.0004 3.42583 23.0004H1.55861C0.998444 23.0004 0.625 23.3738 0.625 23.934V44.4734C0.625 45.0336 0.998444 45.407 1.55861 45.407H3.42583C4.73288 45.407 5.85322 44.4734 6.22666 43.1664L8.46732 42.046C9.21421 41.6726 9.77438 40.739 9.9611 39.8054L18.9238 45.0336C19.2972 45.2203 19.8574 45.407 20.4175 45.407C20.791 45.407 21.3511 45.2203 21.7246 45.0336L44.1312 33.0834C45.0648 32.5232 45.625 31.5896 45.625 30.656V27.8552C45.4383 26.9216 45.0648 25.9879 44.3179 25.4278ZM4.35944 42.6062C4.35944 43.1664 3.986 43.5398 3.42583 43.5398H2.49222V24.8676H3.42583C3.986 24.8676 4.35944 25.2411 4.35944 25.8012V42.6062ZM8.09388 39.6186C8.09388 39.9921 7.90716 40.3655 7.53371 40.3655L6.22666 41.1124V27.295L7.53371 28.0419C7.90716 28.2286 8.09388 28.4153 8.09388 28.7888V39.6186ZM32.3677 3.39458C32.3677 2.83441 32.7412 2.46097 33.3013 2.46097H37.0358C37.596 2.46097 37.9694 2.83441 37.9694 3.39458V26.5481L32.3677 28.602V3.39458ZM24.8989 8.99624C24.8989 8.43607 25.2723 8.06263 25.8325 8.06263H30.5005V29.3489L27.8864 30.2825L27.3262 28.2286C26.9528 27.1083 26.0192 26.3614 25.0856 26.1747V8.99624H24.8989ZM17.43 18.3323C17.43 17.7722 17.8034 17.3987 18.3636 17.3987H23.0316V26.3614L17.43 27.6684V18.3323ZM43.5711 30.4693C43.5711 30.8427 43.3843 31.2162 43.0109 31.2162L20.6043 43.3531C20.4175 43.5398 20.0441 43.5398 19.6706 43.3531L9.9611 37.7514V31.2162L24.3387 28.0419C24.8989 27.8552 25.2723 28.2286 25.459 28.7888L26.3926 31.7763C26.3926 31.963 26.3926 32.3365 26.3926 32.5232C26.2059 32.7099 26.0192 32.8967 25.8325 32.8967L20.2308 34.2037C19.6706 34.3904 19.4839 34.7639 19.4839 35.324C19.6706 35.6975 20.0441 36.0709 20.4175 36.0709H20.6043L26.2059 34.7639C26.9528 34.5772 27.513 34.017 27.8864 33.4568C28.0731 33.0834 28.2599 32.7099 28.2599 32.3365L42.4507 27.1083C42.8242 26.9216 43.0109 27.1083 43.3843 27.295C43.5711 27.4817 43.7578 27.6684 43.7578 28.0419V30.4693H43.5711Z" fill="#202020"/>
</svg>
