<svg width="47" height="47" viewBox="0 0 47 47" fill="none" xmlns="http://www.w3.org/2000/svg">
<path d="M28.5059 9.69141H31.0671" stroke="black" stroke-width="1.21459" stroke-linecap="round" stroke-linejoin="round"/>
<path d="M28.5059 12.2539H30.1706" stroke="black" stroke-width="1.21459" stroke-linecap="round" stroke-linejoin="round"/>
<path d="M28.5059 9.69141V14.8138" stroke="black" stroke-width="1.21459" stroke-linecap="round" stroke-linejoin="round"/>
<path d="M22.6211 14.8099V9.6875H23.4535C24.8621 9.6875 26.0147 10.84 26.0147 12.2487C26.0147 13.6574 24.8621 14.8099 23.4535 14.8099H22.6211Z" stroke="black" stroke-width="1.21459" stroke-linecap="round" stroke-linejoin="round"/>
<path d="M16.9375 14.5248V9.40234H18.6023C19.5628 9.40234 20.3312 10.1707 20.3312 11.1312C20.3312 12.0917 19.5628 12.86 18.6023 12.86H16.9375" stroke="black" stroke-width="1.21459" stroke-linecap="round" stroke-linejoin="round"/>
<path d="M14.2129 37.332H23.5055" stroke="black" stroke-width="1.21459" stroke-linecap="round" stroke-linejoin="round"/>
<path d="M14.248 33.7109H30.914" stroke="black" stroke-width="1.21459" stroke-linecap="round" stroke-linejoin="round"/>
<path d="M14.248 29.9062H33.8693" stroke="black" stroke-width="1.21459" stroke-linecap="round" stroke-linejoin="round"/>
<path d="M35.569 5.28516H12.051C10.7058 5.28516 9.61523 6.37568 9.61523 7.7209V39.3503C9.61523 40.6955 10.7058 41.786 12.051 41.786H35.569C36.9143 41.786 38.0048 40.6955 38.0048 39.3503V7.7209C38.0048 6.37568 36.9143 5.28516 35.569 5.28516Z" stroke="black" stroke-width="1.21459" stroke-linecap="round" stroke-linejoin="round"/>
<path d="M10.0697 0.65625H2.51367V8.39503" stroke="black" stroke-width="1.21459" stroke-linecap="round" stroke-linejoin="round"/>
<path d="M36.1504 0.65625H43.8283V8.39503" stroke="black" stroke-width="1.21459" stroke-linecap="round" stroke-linejoin="round"/>
<path d="M43.8283 38.0078V45.6553H36.1504" stroke="black" stroke-width="1.21459" stroke-linecap="round" stroke-linejoin="round"/>
<path d="M10.0697 45.6553H2.51367V38.0078" stroke="black" stroke-width="1.21459" stroke-linecap="round" stroke-linejoin="round"/>
<path d="M0.654297 23.2617H45.5943" stroke="black" stroke-width="1.21459" stroke-linecap="round" stroke-linejoin="round"/>
<path d="M14.2129 19.1797H33.8342" stroke="black" stroke-width="1.21459" stroke-linecap="round" stroke-linejoin="round"/>
<path d="M14.248 25.4883H33.8693" stroke="black" stroke-width="1.21459" stroke-linecap="round" stroke-linejoin="round"/>
</svg>
