<svg width="46" height="46" viewBox="0 0 46 46" fill="none" xmlns="http://www.w3.org/2000/svg">
<path d="M11.271 4.62216C11.2663 4.9334 11.1698 5.23631 10.9935 5.49283C10.8172 5.74935 10.569 5.94804 10.2801 6.06392C9.99116 6.17981 9.67446 6.20772 9.36975 6.14414C9.06504 6.08057 8.78592 5.92835 8.56747 5.70662C8.34901 5.48489 8.20096 5.20353 8.14193 4.89791C8.0829 4.59229 8.11553 4.27604 8.2357 3.9889C8.35587 3.70176 8.55823 3.45655 8.81735 3.28408C9.07647 3.1116 9.38078 3.01957 9.69205 3.01953C10.1136 3.02391 10.5162 3.19491 10.8121 3.49519C11.1079 3.79548 11.2729 4.20063 11.271 4.62216Z" fill="#202020"/>
<path d="M6.53467 4.62216C6.53 4.9334 6.43344 5.23631 6.25713 5.49283C6.08082 5.74935 5.83262 5.94804 5.54373 6.06392C5.25484 6.17981 4.93813 6.20772 4.63342 6.14414C4.32872 6.08057 4.04959 5.92835 3.83114 5.70662C3.61268 5.48489 3.46463 5.20353 3.40561 4.89791C3.34658 4.59229 3.3792 4.27604 3.49937 3.9889C3.61954 3.70176 3.8219 3.45655 4.08102 3.28408C4.34014 3.1116 4.64445 3.01957 4.95572 3.01953C5.37724 3.02391 5.77989 3.19491 6.07574 3.49519C6.37158 3.79548 6.53657 4.20063 6.53467 4.62216Z" fill="#202020"/>
<path d="M16.0073 4.62216C16.0027 4.9334 15.9061 5.23631 15.7298 5.49283C15.5535 5.74935 15.3053 5.94804 15.0164 6.06392C14.7275 6.17981 14.4108 6.20772 14.1061 6.14414C13.8014 6.08057 13.5222 5.92835 13.3038 5.70662C13.0853 5.48489 12.9373 5.20353 12.8783 4.89791C12.8192 4.59229 12.8519 4.27604 12.972 3.9889C13.0922 3.70176 13.2946 3.45655 13.5537 3.28408C13.8128 3.1116 14.1171 3.01957 14.4284 3.01953C14.8499 3.02391 15.2525 3.19491 15.5484 3.49519C15.8442 3.79548 16.0092 4.20063 16.0073 4.62216Z" fill="#202020"/>
<path d="M43.6398 0.21875H1.7977C1.37932 0.22 0.978433 0.386754 0.682593 0.682593C0.386754 0.978433 0.22 1.37932 0.21875 1.7977V43.6398C0.22 44.0582 0.386754 44.4591 0.682593 44.7549C0.978433 45.0507 1.37932 45.2175 1.7977 45.2188H43.6398C44.0582 45.2175 44.4591 45.0507 44.7549 44.7549C45.0507 44.4591 45.2175 44.0582 45.2188 43.6398V1.7977C45.2175 1.37932 45.0507 0.978433 44.7549 0.682593C44.4591 0.386754 44.0582 0.22 43.6398 0.21875ZM43.6398 43.6398H1.7977V9.03717H43.6398V43.6398ZM43.6398 7.45822H1.7977V1.7977H43.6398V7.45822Z" fill="#202020"/>
<path d="M41.8317 5.27824C41.9777 5.4272 42.0588 5.62788 42.0573 5.83645C42.0559 6.04502 41.9719 6.24453 41.8238 6.3914C41.752 6.46506 41.666 6.52334 41.571 6.5627C41.476 6.60206 41.374 6.62168 41.2712 6.62035C41.1666 6.62099 41.0629 6.60032 40.9665 6.55961C40.8702 6.51889 40.7831 6.45897 40.7106 6.38351L40.087 5.75193L39.4633 6.38351C39.3908 6.45897 39.3037 6.51889 39.2074 6.55961C39.111 6.60032 39.0074 6.62099 38.9027 6.62035C38.7999 6.62168 38.6979 6.60206 38.6029 6.5627C38.5079 6.52334 38.4219 6.46506 38.3501 6.3914C38.202 6.24453 38.1181 6.04502 38.1166 5.83645C38.1151 5.62788 38.1962 5.4272 38.3422 5.27824L38.9817 4.62298L38.3422 3.97561C38.1954 3.82552 38.1138 3.62345 38.1153 3.41346C38.1167 3.20347 38.2012 3.00257 38.3501 2.85456C38.4991 2.70856 38.6998 2.62745 38.9083 2.62893C39.1169 2.63041 39.3164 2.71436 39.4633 2.86245L40.087 3.50193L40.7106 2.86245C40.8575 2.71436 41.057 2.63041 41.2656 2.62893C41.4742 2.62745 41.6748 2.70856 41.8238 2.85456C41.9728 3.00257 42.0572 3.20347 42.0587 3.41346C42.0601 3.62345 41.9786 3.82552 41.8317 3.97561L41.1922 4.62298L41.8317 5.27824Z" fill="#202020"/>
<path d="M36.5337 4.6215C36.5337 4.83089 36.4505 5.03169 36.3025 5.17975C36.1544 5.3278 35.9536 5.41098 35.7442 5.41098H32.5863C32.377 5.41098 32.1762 5.3278 32.0281 5.17975C31.8801 5.03169 31.7969 4.83089 31.7969 4.6215C31.7969 4.41212 31.8801 4.21132 32.0281 4.06326C32.1762 3.91521 32.377 3.83203 32.5863 3.83203H35.7442C35.9536 3.83203 36.1544 3.91521 36.3025 4.06326C36.4505 4.21132 36.5337 4.41212 36.5337 4.6215Z" fill="#202020"/>
<path d="M13.3637 31.3155L16.2294 29.6655H30.1794C30.5954 29.6633 31.0029 29.5474 31.3577 29.3303C31.7125 29.1132 32.0012 28.8032 32.1926 28.4339L36.6689 19.9786C36.8771 19.5801 36.9711 19.1317 36.9405 18.6831C36.9098 18.2345 36.7557 17.803 36.4952 17.4365L35.9268 16.6313C35.7167 16.3363 35.4398 16.0953 35.1188 15.9279C34.7977 15.7605 34.4415 15.6715 34.0794 15.6681H34.0715L15.4637 15.7155L15.3452 14.4997C15.2917 13.8994 15.0176 13.3403 14.5757 12.9306C14.1338 12.5208 13.5557 12.2894 12.9531 12.2812H8.4926C8.28322 12.2812 8.08241 12.3644 7.93436 12.5125C7.7863 12.6605 7.70312 12.8613 7.70312 13.0707C7.70312 13.2801 7.7863 13.4809 7.93436 13.629C8.08241 13.777 8.28322 13.8602 8.4926 13.8602H12.9531C13.1652 13.8695 13.3664 13.9569 13.5179 14.1055C13.6695 14.2542 13.7607 14.4536 13.7742 14.6655L15.1794 28.4497L12.5189 29.9891C12.1901 30.2206 11.9222 30.5282 11.738 30.8856C11.5538 31.243 11.4588 31.6397 11.461 32.0418V32.2628C11.4551 32.88 11.6816 33.4768 12.0956 33.9347C12.5095 34.3925 13.0806 34.6778 13.6952 34.7339C13.292 35.3394 13.0777 36.0511 13.0794 36.7786C13.0622 37.2461 13.1394 37.7123 13.3064 38.1493C13.4734 38.5862 13.7267 38.9851 14.0514 39.3219C14.376 39.6587 14.7652 39.9267 15.1957 40.1097C15.6263 40.2927 16.0893 40.387 16.5571 40.387C17.0249 40.387 17.4879 40.2927 17.9184 40.1097C18.3489 39.9267 18.7381 39.6587 19.0628 39.3219C19.3874 38.9851 19.6408 38.5862 19.8078 38.1493C19.9748 37.7123 20.052 37.2461 20.0347 36.7786C20.0342 36.0575 19.8229 35.3522 19.4268 34.7497H26.5873C26.1876 35.3506 25.976 36.0569 25.9794 36.7786C25.9622 37.2461 26.0394 37.7123 26.2064 38.1493C26.3733 38.5862 26.6267 38.9851 26.9514 39.3219C27.276 39.6587 27.6652 39.9267 28.0957 40.1097C28.5263 40.2927 28.9893 40.387 29.4571 40.387C29.9249 40.387 30.3879 40.2927 30.8184 40.1097C31.2489 39.9267 31.6381 39.6587 31.9628 39.3219C32.2874 38.9851 32.5408 38.5862 32.7078 38.1493C32.8748 37.7123 32.952 37.2461 32.9347 36.7786C32.9342 36.0575 32.7229 35.3522 32.3268 34.7497H33.7558C33.9651 34.7497 34.1659 34.6665 34.314 34.5184C34.4621 34.3704 34.5452 34.1696 34.5452 33.9602C34.5452 33.7508 34.4621 33.55 34.314 33.402C34.1659 33.2539 33.9651 33.1707 33.7558 33.1707H13.8689C13.639 33.1591 13.423 33.0572 13.2678 32.8872C13.1126 32.7172 13.0307 32.4928 13.04 32.2628V32.0418C13.0386 31.9046 13.0669 31.7687 13.1227 31.6434C13.1786 31.518 13.2607 31.4062 13.3637 31.3155ZM30.8031 27.6918C30.7443 27.8076 30.6553 27.9053 30.5455 27.9748C30.4357 28.0443 30.3093 28.0829 30.1794 28.0865H16.7268L15.9137 20.0812L34.8294 20.0734L30.8031 27.6918ZM34.0715 17.247H34.0794C34.1901 17.2482 34.2989 17.276 34.3965 17.3283C34.4941 17.3805 34.5776 17.4556 34.64 17.547L35.2163 18.3523C35.24 18.3918 35.2636 18.4391 35.2873 18.4865L15.7479 18.5023L15.6294 17.2944L34.0715 17.247ZM29.4531 34.7497C29.8614 34.721 30.2688 34.8159 30.6223 35.022C30.9759 35.2281 31.2592 35.536 31.4353 35.9054C31.6114 36.2748 31.6722 36.6887 31.6098 37.0931C31.5474 37.4976 31.3646 37.8739 31.0853 38.173C30.8059 38.4721 30.443 38.6802 30.0438 38.7701C29.6445 38.86 29.2274 38.8277 28.8468 38.6772C28.4663 38.5267 28.1398 38.2651 27.91 37.9265C27.6802 37.5879 27.5577 37.1879 27.5584 36.7786C27.5422 36.2587 27.7323 35.7536 28.0873 35.3734C28.4423 34.9933 28.9333 34.769 29.4531 34.7497ZM16.5531 34.7497C16.9614 34.721 17.3688 34.8159 17.7223 35.022C18.0759 35.2281 18.3592 35.536 18.5353 35.9054C18.7114 36.2748 18.7722 36.6887 18.7098 37.0931C18.6474 37.4976 18.4646 37.8739 18.1853 38.173C17.9059 38.4721 17.543 38.6802 17.1438 38.7701C16.7445 38.86 16.3274 38.8277 15.9468 38.6772C15.5663 38.5267 15.2398 38.2651 15.01 37.9265C14.7802 37.5879 14.6577 37.1879 14.6584 36.7786C14.6422 36.2587 14.8323 35.7536 15.1873 35.3734C15.5423 34.9933 16.0333 34.769 16.5531 34.7497Z" fill="#202020"/>
</svg>
