<svg width="46" height="36" viewBox="0 0 46 36" fill="none" xmlns="http://www.w3.org/2000/svg">
<path d="M45.3898 5.61286C45.2028 4.66769 44.7811 3.77437 44.1658 3.02334C44.0408 2.86566 43.9101 2.72539 43.7672 2.5831C42.6726 1.48271 41.15 0.851562 39.5897 0.851562H6.41012C4.83239 0.851562 3.34854 1.4668 2.23188 2.58371C2.09056 2.72469 1.95951 2.86637 1.82979 3.02905C1.21719 3.77691 0.797334 4.669 0.614785 5.6155C0.538496 5.98719 0.5 6.37232 0.5 6.76194V30.065C0.5 30.8757 0.664707 31.6651 0.991221 32.4156C1.27379 33.0821 1.70252 33.714 2.23153 34.2427C2.36478 34.3753 2.49714 34.4977 2.63847 34.6169C3.69614 35.4929 5.03542 35.9749 6.41012 35.9749H39.5897C40.9733 35.9749 42.3112 35.491 43.3661 34.6073C43.5071 34.4932 43.6378 34.3734 43.7685 34.2427C44.2798 33.7319 44.6862 33.145 44.9784 32.4977L45.0169 32.4054C45.3373 31.6692 45.5 30.8823 45.5 30.0651V6.76194C45.5 6.37742 45.4629 5.98974 45.3898 5.61286ZM3.56062 4.62348C3.6442 4.50113 3.7509 4.37554 3.88704 4.23834C4.56283 3.5629 5.45905 3.19121 6.41003 3.19121H39.5896C40.5489 3.19121 41.4454 3.56352 42.1137 4.23966C42.2291 4.35629 42.3394 4.48575 42.4355 4.61513L42.6893 4.95614L24.9793 20.3911C24.4333 20.8698 23.7304 21.1332 22.9997 21.1332C22.2763 21.1332 21.574 20.8704 21.0215 20.3918L3.3292 4.96054L3.56062 4.62348ZM2.85151 30.2708C2.84193 30.2073 2.83974 30.1368 2.83974 30.065V7.24446L16.5832 19.2337L2.97843 31.0955L2.85151 30.2708ZM41.3603 33.1647C40.8283 33.4716 40.2158 33.6344 39.5897 33.6344H6.41012C5.78372 33.6344 5.17139 33.4716 4.63982 33.1647L4.08365 32.8423L18.1405 20.5922L19.6811 21.9322C20.6052 22.7345 21.7836 23.1767 22.9999 23.1767C24.2207 23.1767 25.4011 22.7345 26.3245 21.9322L27.8645 20.5916L41.9165 32.843L41.3603 33.1647ZM43.1596 30.065C43.1596 30.1356 43.1583 30.2054 43.1495 30.2675L43.0276 31.1L29.4171 19.2401L43.1596 7.25026V30.065Z" fill="#202020"/>
</svg>
