<svg width="46" height="46" viewBox="0 0 46 46" fill="none" xmlns="http://www.w3.org/2000/svg">
<path d="M42.6875 3.3125H25.1094V2.60938C25.1094 1.4443 24.1651 0.5 23 0.5C21.8349 0.5 20.8906 1.4443 20.8906 2.60938V3.3125H3.3125C1.75789 3.3125 0.5 4.57039 0.5 6.125V32.8438C0.5 34.3984 1.75789 35.6562 3.3125 35.6562H17.2963L13.4396 42.3359C12.8567 43.3449 13.202 44.6352 14.2116 45.2173C15.2213 45.7995 16.5109 45.4543 17.093 44.4453L22.1675 35.6562H23.8339L28.9084 44.4453C29.4912 45.455 30.7808 45.8002 31.7905 45.2173C32.8002 44.6352 33.1447 43.3456 32.5625 42.3359L28.7059 35.6562H42.6875C44.2421 35.6562 45.5 34.3984 45.5 32.8438V6.125C45.5 4.57039 44.2421 3.3125 42.6875 3.3125ZM22.2969 2.60938C22.2969 2.22055 22.6112 1.90625 23 1.90625C23.3888 1.90625 23.7031 2.22055 23.7031 2.60938V3.3125H22.2969V2.60938ZM15.8745 43.7422C15.6805 44.079 15.2502 44.1943 14.9141 43.9988C14.5773 43.8055 14.462 43.3752 14.6574 43.0391L18.9198 35.6562H20.5433L15.8745 43.7422ZM31.3426 43.0391C31.5373 43.3759 31.422 43.8055 31.0859 43.9995C30.7498 44.1936 30.3195 44.0783 30.1255 43.7422L25.4567 35.6562H27.0802L31.3426 43.0391ZM44.0938 32.8438C44.0938 33.62 43.4637 34.25 42.6875 34.25H3.3125C2.53625 34.25 1.90625 33.62 1.90625 32.8438V6.125C1.90625 5.34875 2.53625 4.71875 3.3125 4.71875H42.6875C43.4637 4.71875 44.0938 5.34875 44.0938 6.125V32.8438Z" fill="#231F20"/>
<path d="M25.1094 13.1562H20.8906C20.5018 13.1562 20.1875 13.4705 20.1875 13.8594V31.4375H25.8125V13.8594C25.8125 13.4705 25.4982 13.1562 25.1094 13.1562ZM24.4062 30.0312H21.5938V24.4062H24.4062V30.0312ZM24.4062 23H21.5938V14.5625H24.4062V23Z" fill="#231F20"/>
<path d="M33.5469 7.53125H29.3281C28.9393 7.53125 28.625 7.84555 28.625 8.23438V31.4375H34.25V8.23438C34.25 7.84555 33.9357 7.53125 33.5469 7.53125ZM32.8438 30.0312H30.0312V23H32.8438V30.0312ZM32.8438 21.5938H30.0312V8.9375H32.8438V21.5938Z" fill="#231F20"/>
<path d="M16.6719 18.7812H12.4531C12.0643 18.7812 11.75 19.0955 11.75 19.4844V31.4375H17.375V19.4844C17.375 19.0955 17.0607 18.7812 16.6719 18.7812ZM15.9688 30.0312H13.1562V25.8125H15.9688V30.0312ZM15.9688 24.4062H13.1562V20.1875H15.9688V24.4062Z" fill="#231F20"/>
</svg>
