<svg width="47" height="40" viewBox="0 0 47 40" fill="none" xmlns="http://www.w3.org/2000/svg">
<path d="M13.9837 20.2442L13.5547 20.1858C12.4581 20.0342 12.0645 19.6614 12.0645 19.1134C12.0645 18.4952 12.5174 18.0522 13.34 18.0522C14.0193 18.0522 14.6272 18.2505 15.283 18.6704C15.3424 18.7052 15.4021 18.6935 15.4497 18.635L16.022 17.7727C16.0697 17.7024 16.0576 17.6559 15.9979 17.6092C15.3545 17.1315 14.389 16.8164 13.3758 16.8164C11.7069 16.8164 10.6341 17.7726 10.6341 19.2066C10.6341 20.5239 11.5163 21.2588 13.0777 21.4682L13.5068 21.5266C14.6272 21.6782 14.9848 22.0516 14.9848 22.6226C14.9848 23.2874 14.4246 23.7652 13.4591 23.7652C12.5533 23.7652 11.7784 23.334 11.254 22.9258C11.2064 22.8793 11.1349 22.8793 11.0872 22.9376L10.3482 23.777C10.3006 23.8353 10.3244 23.905 10.372 23.9522C11.0037 24.535 12.1598 25.001 13.352 25.001C15.3662 25.001 16.4035 23.9522 16.4035 22.5412C16.4035 21.1768 15.545 20.4542 13.9837 20.2442Z" fill="#202020"/>
<path d="M22.9936 16.9414H17.916C17.8445 16.9414 17.7969 16.988 17.7969 17.0582V24.7532C17.7969 24.8234 17.8445 24.87 17.916 24.87H22.9936C23.0654 24.87 23.113 24.8234 23.113 24.7532V23.7509C23.113 23.6808 23.0654 23.6342 22.9936 23.6342H19.2749L19.2034 23.5639V21.5589L19.2749 21.4888H22.4095C22.4813 21.4888 22.529 21.4421 22.529 21.3719V20.3692C22.529 20.2995 22.4813 20.253 22.4095 20.253H19.2749L19.2034 20.1827V18.2474L19.2749 18.1778H22.9936C23.0654 18.1778 23.113 18.1306 23.113 18.061V17.0582C23.113 16.988 23.0654 16.9414 22.9936 16.9414Z" fill="#202020"/>
<path d="M27.4327 16.8164C26.038 16.8164 24.9891 17.4694 24.5721 18.7287C24.405 19.2184 24.3574 19.6614 24.3574 20.9089C24.3574 22.1565 24.405 22.5995 24.5721 23.0891C24.9891 24.3485 26.0381 25.0009 27.4327 25.0009C28.8395 25.0009 29.8876 24.3485 30.3056 23.0891C30.472 22.5995 30.5202 22.1565 30.5202 20.9089C30.5202 19.6613 30.472 19.2184 30.3056 18.7287C29.8876 17.4694 28.8395 16.8164 27.4327 16.8164ZM28.9463 22.7276C28.7201 23.3688 28.2437 23.7652 27.4326 23.7652C26.6341 23.7652 26.1571 23.3688 25.9307 22.7276C25.8354 22.4362 25.7877 22.028 25.7877 20.909C25.7877 19.7776 25.8354 19.3813 25.9307 19.0898C26.1572 18.4486 26.6342 18.0522 27.4326 18.0522C28.2437 18.0522 28.7201 18.4486 28.9463 19.0898C29.0416 19.3812 29.0897 19.7776 29.0897 20.909C29.0898 22.028 29.0416 22.4361 28.9463 22.7276Z" fill="#202020"/>
<circle cx="19.8646" cy="19.9974" r="18.1291" stroke="#202020" stroke-width="1.91629"/>
<path d="M45.2156 37.8162C45.6443 38.1263 46.2433 38.0301 46.5534 37.6014C46.8636 37.1726 46.7674 36.5736 46.3387 36.2635L45.2156 37.8162ZM34.9052 30.3584L45.2156 37.8162L46.3387 36.2635L36.0283 28.8057L34.9052 30.3584Z" fill="#202020"/>
</svg>
