<svg width="46" height="46" viewBox="0 0 46 46" fill="none" xmlns="http://www.w3.org/2000/svg">
<path d="M33.5396 12.8862C32.7523 12.1321 31.8848 11.75 30.958 11.75C29.5091 11.75 28.4516 12.6861 28.1627 12.9729C27.7553 13.3759 13.8709 27.2661 13.8709 27.2661C13.7799 27.3571 13.7141 27.4712 13.6802 27.5955C13.3674 28.7526 11.7986 33.8869 11.7827 33.9389C11.7018 34.2018 11.774 34.4886 11.9676 34.6821C12.107 34.8208 12.2926 34.8952 12.4826 34.8952C12.5577 34.8952 12.6328 34.8837 12.7065 34.8598C12.7592 34.8425 18.0589 33.1299 18.9314 32.8691C19.0463 32.8344 19.1517 32.7723 19.237 32.6878C19.7881 32.1432 32.7378 19.3372 33.5974 18.4495C34.4865 17.5336 34.9286 16.5787 34.9113 15.6144C34.8932 14.6617 34.4317 13.7443 33.5381 12.8869L33.5396 12.8862ZM27.9322 15.2829C28.2999 15.3717 29.1681 15.6635 30.0544 16.5577C30.9501 17.4614 31.1921 18.4943 31.2376 18.7298C28.3974 21.5555 21.8597 28.0238 19.2825 30.5729C19.0448 30.0189 18.6599 29.3507 18.0408 28.7274C17.2853 27.966 16.516 27.5363 15.923 27.2943C18.4735 24.743 25.1347 18.0797 27.9315 15.2836L27.9322 15.2829ZM14.9428 28.5128C15.3401 28.6183 16.1642 28.9245 17.0043 29.7711C17.6515 30.4241 17.957 31.1435 18.0943 31.5827C17.0903 31.9056 14.8915 32.664 13.4953 33.1147C13.9092 31.7524 14.6084 29.6317 14.9428 28.5128ZM32.55 17.4166C32.5204 17.4469 32.4713 17.496 32.4128 17.5553C32.1845 16.9673 31.7844 16.2118 31.0902 15.5126C30.3816 14.7982 29.6629 14.3771 29.0872 14.1279C29.1363 14.0795 29.1739 14.0412 29.1891 14.0267C29.2714 13.9451 30.0219 13.2279 30.9566 13.2279C31.4947 13.2279 32.0234 13.4734 32.5276 13.9574C33.1257 14.5316 33.4349 15.0979 33.445 15.6411C33.4551 16.1959 33.1532 16.7932 32.5493 17.4166H32.55Z" fill="#202020"/>
<circle cx="23" cy="23" r="21.5" stroke="#202020" stroke-width="2"/>
</svg>
