<svg width="74" height="74" viewBox="0 0 74 74" fill="none" xmlns="http://www.w3.org/2000/svg">
<circle cx="37" cy="37" r="36" fill="#202020" stroke="#F4F4F4" stroke-width="2"/>
<path d="M19.2993 46H15.6616C15.8813 45.5036 16.1051 44.9461 16.333 44.3276C16.5609 43.7091 16.866 42.8221 17.2485 41.6665L21.7651 28.1777H26.1108L30.6274 41.6665C31.0099 42.8058 31.3151 43.6929 31.543 44.3276C31.779 44.9543 32.0028 45.5117 32.2144 46H28.6377L27.2827 41.6665H20.6421L19.2993 46ZM26.4526 39.042L23.938 31.0098L21.4478 39.042H26.4526ZM35.6079 44.1689C35.6079 43.5423 35.8073 43.0296 36.2061 42.6309C36.613 42.2321 37.1257 42.0327 37.7441 42.0327C38.3708 42.0327 38.8835 42.2321 39.2822 42.6309C39.681 43.0296 39.8804 43.5423 39.8804 44.1689C39.8804 44.8037 39.681 45.3205 39.2822 45.7192C38.8835 46.1099 38.3708 46.3052 37.7441 46.3052C37.1257 46.3052 36.613 46.1099 36.2061 45.7192C35.8073 45.3205 35.6079 44.8037 35.6079 44.1689ZM46.106 46H42.4683C42.688 45.5036 42.9118 44.9461 43.1396 44.3276C43.3675 43.7091 43.6727 42.8221 44.0552 41.6665L48.5718 28.1777H52.9175L57.4341 41.6665C57.8166 42.8058 58.1217 43.6929 58.3496 44.3276C58.5856 44.9543 58.8094 45.5117 59.021 46H55.4443L54.0894 41.6665H47.4487L46.106 46ZM53.2593 39.042L50.7446 31.0098L48.2544 39.042H53.2593Z" fill="white"/>
</svg>
