<svg width="74" height="74" viewBox="0 0 74 74" fill="none" xmlns="http://www.w3.org/2000/svg">
<circle cx="37" cy="37" r="36" fill="#202020" stroke="#F4F4F4" stroke-width="2"/>
<path d="M19.6411 46H16.0034C16.2231 45.5036 16.4469 44.9461 16.6748 44.3276C16.9027 43.7091 17.2078 42.8221 17.5903 41.6665L22.1069 28.1777H26.4526L30.9692 41.6665C31.3517 42.8058 31.6569 43.6929 31.8848 44.3276C32.1208 44.9543 32.3446 45.5117 32.5562 46H28.9795L27.6245 41.6665H20.9839L19.6411 46ZM26.7944 39.042L24.2798 31.0098L21.7896 39.042H26.7944ZM35.9497 44.1689C35.9497 43.5423 36.1491 43.0296 36.5479 42.6309C36.9548 42.2321 37.4674 42.0327 38.0859 42.0327C38.7126 42.0327 39.2253 42.2321 39.624 42.6309C40.0228 43.0296 40.2222 43.5423 40.2222 44.1689C40.2222 44.8037 40.0228 45.3205 39.624 45.7192C39.2253 46.1099 38.7126 46.3052 38.0859 46.3052C37.4674 46.3052 36.9548 46.1099 36.5479 45.7192C36.1491 45.3205 35.9497 44.8037 35.9497 44.1689ZM53.6987 28.1777H57.8003L49.2432 37.748L48.3887 37.2109L46.7041 37.0645L53.6987 28.1777ZM46.9238 37.0767L49.6704 35.8804L58.7769 46H54.2603L46.9238 37.0767ZM47.6685 28.1777V46H44.0063C44.0959 45.5117 44.1488 44.8078 44.165 43.8882C44.1813 42.9604 44.1895 41.8944 44.1895 40.6899V33.4878C44.1895 32.2834 44.1813 31.2214 44.165 30.3018C44.1488 29.374 44.0959 28.666 44.0063 28.1777H47.6685Z" fill="white"/>
</svg>
