<svg width="74" height="74" viewBox="0 0 74 74" fill="none" xmlns="http://www.w3.org/2000/svg">
<circle cx="37" cy="37" r="36" fill="#202020" stroke="#F4F4F4" stroke-width="2"/>
<path d="M17.188 40.4458V33.793C17.188 32.5967 17.1799 31.4858 17.1636 30.4604C17.1473 29.4269 17.0944 28.666 17.0049 28.1777C17.2734 28.1615 17.6437 28.1452 18.1157 28.1289C18.5959 28.1126 19.1167 28.1004 19.6782 28.0923C20.2479 28.076 20.8094 28.0679 21.3628 28.0679C21.9243 28.0597 22.4248 28.0557 22.8643 28.0557C23.5397 28.0557 24.2803 28.1208 25.0859 28.251C25.8916 28.373 26.6932 28.6131 27.4907 28.9712C28.2964 29.3211 29.0288 29.8257 29.688 30.4849C30.3553 31.144 30.8883 32.0026 31.2871 33.0605C31.694 34.1185 31.8975 35.4206 31.8975 36.9668C31.8975 38.4154 31.6981 39.6646 31.2993 40.7144C30.9087 41.756 30.3797 42.6268 29.7124 43.3267C29.0532 44.0265 28.3167 44.5799 27.5029 44.9868C26.6973 45.3937 25.8672 45.6867 25.0127 45.8657C24.1663 46.0366 23.3647 46.1221 22.6079 46.1221C22.1929 46.1221 21.672 46.1139 21.0454 46.0977C20.4269 46.0895 19.8084 46.0773 19.1899 46.061C18.5715 46.0448 18.0506 46.0285 17.6274 46.0122C17.2124 46.0041 17.0049 46 17.0049 46C17.0944 45.5117 17.1432 44.7671 17.1514 43.7661C17.1676 42.757 17.1799 41.6502 17.188 40.4458ZM20.667 30.8511V43.1802C20.903 43.2046 21.2122 43.2331 21.5947 43.2656C21.9854 43.29 22.4207 43.3022 22.9009 43.3022C23.8123 43.3022 24.6912 43.1029 25.5376 42.7041C26.384 42.3053 27.0798 41.6584 27.625 40.7632C28.1784 39.868 28.4551 38.6839 28.4551 37.2109C28.4551 35.5915 28.215 34.3138 27.7349 33.3779C27.2629 32.4421 26.6118 31.7788 25.7817 31.3882C24.9517 30.9894 24.0076 30.79 22.9497 30.79C22.616 30.79 22.2173 30.7982 21.7534 30.8145C21.2896 30.8226 20.9274 30.8348 20.667 30.8511ZM35.7549 44.1689C35.7549 43.5423 35.9543 43.0296 36.353 42.6309C36.7599 42.2321 37.2726 42.0327 37.8911 42.0327C38.5177 42.0327 39.0304 42.2321 39.4292 42.6309C39.828 43.0296 40.0273 43.5423 40.0273 44.1689C40.0273 44.8037 39.828 45.3205 39.4292 45.7192C39.0304 46.1099 38.5177 46.3052 37.8911 46.3052C37.2726 46.3052 36.7599 46.1099 36.353 45.7192C35.9543 45.3205 35.7549 44.8037 35.7549 44.1689ZM47.4736 38.8589V40.6899C47.4736 41.8944 47.4818 42.9604 47.498 43.8882C47.5225 44.8159 47.5754 45.5199 47.6567 46H43.8115C43.901 45.5117 43.9539 44.8078 43.9702 43.8882C43.9865 42.9604 43.9946 41.8944 43.9946 40.6899V33.793C43.9946 32.5967 43.9865 31.4858 43.9702 30.4604C43.9539 29.4269 43.901 28.666 43.8115 28.1777C43.8115 28.1777 43.9906 28.1737 44.3486 28.1655C44.7148 28.1493 45.195 28.133 45.7891 28.1167C46.3913 28.1004 47.0505 28.0882 47.7666 28.0801C48.4827 28.0638 49.1989 28.0557 49.915 28.0557C51.1846 28.0557 52.2995 28.251 53.2598 28.6416C54.2201 29.0241 54.9688 29.6019 55.5059 30.375C56.0511 31.1481 56.3237 32.1247 56.3237 33.3047C56.3237 34.5905 56.0063 35.6444 55.3716 36.4663C54.7368 37.2882 53.9067 37.8945 52.8813 38.2852C51.8641 38.6676 50.7736 38.8589 49.6099 38.8589H47.4736ZM47.4736 30.8633V36.2344H49.3657C50.4318 36.2344 51.2782 36.0269 51.9048 35.6118C52.5314 35.1886 52.8447 34.4399 52.8447 33.3657C52.8447 32.4461 52.5558 31.791 51.978 31.4004C51.4002 31.0016 50.5701 30.8022 49.4878 30.8022C49.0158 30.8022 48.6414 30.8104 48.3647 30.8267C48.0962 30.8348 47.7992 30.847 47.4736 30.8633ZM48.7676 38.2485L52.0757 37.6138C52.0757 37.6138 52.2059 37.7969 52.4663 38.1631C52.7267 38.5212 53.0645 38.9932 53.4795 39.5791C53.9027 40.165 54.3543 40.7957 54.8345 41.4712C55.3228 42.1466 55.7988 42.8018 56.2627 43.4365C56.7266 44.0713 57.1335 44.6206 57.4834 45.0845C57.8333 45.5483 58.0775 45.8535 58.2158 46H53.8823L48.7676 38.2485Z" fill="white"/>
</svg>
