<svg width="74" height="74" viewBox="0 0 74 74" fill="none" xmlns="http://www.w3.org/2000/svg">
<circle cx="37" cy="37" r="36" fill="#202020" stroke="#F4F4F4" stroke-width="2"/>
<path d="M22.8027 35.3188H29.48V38.0654H22.8027V43.1924H25.9521C27.1159 43.1924 28.0884 43.1842 28.8696 43.168C29.659 43.1436 30.2897 43.0907 30.7617 43.0093V46H19.1406C19.2301 45.5117 19.283 44.8078 19.2993 43.8882C19.3156 42.9604 19.3237 41.8944 19.3237 40.6899V33.4878C19.3237 32.2834 19.3156 31.2214 19.2993 30.3018C19.283 29.374 19.2301 28.666 19.1406 28.1777H30.3955V30.9854H22.8027V35.3188ZM34.5459 44.1689C34.5459 43.5423 34.7453 43.0296 35.144 42.6309C35.5509 42.2321 36.0636 42.0327 36.6821 42.0327C37.3088 42.0327 37.8215 42.2321 38.2202 42.6309C38.619 43.0296 38.8184 43.5423 38.8184 44.1689C38.8184 44.8037 38.619 45.3205 38.2202 45.7192C37.8215 46.1099 37.3088 46.3052 36.6821 46.3052C36.0636 46.3052 35.5509 46.1099 35.144 45.7192C34.7453 45.3205 34.5459 44.8037 34.5459 44.1689ZM55.603 41.0562L56.2134 44.291C55.717 44.6898 55.1147 45.0397 54.4067 45.3408C53.6987 45.6419 52.9582 45.8779 52.1851 46.0488C51.4201 46.2197 50.6877 46.3052 49.9878 46.3052C48.3032 46.3052 46.8547 45.939 45.6421 45.2065C44.4295 44.4741 43.4977 43.4365 42.8467 42.0938C42.1956 40.751 41.8701 39.1641 41.8701 37.333C41.8701 35.7624 42.0939 34.387 42.5415 33.207C42.9972 32.0189 43.6198 31.0301 44.4092 30.2407C45.1986 29.4513 46.1019 28.8613 47.1191 28.4707C48.1445 28.0719 49.2228 27.8726 50.354 27.8726C51.4771 27.8726 52.4821 27.9987 53.3691 28.251C54.2643 28.5033 55.1514 28.9468 56.0303 29.5815L55.1758 32.5112C54.4027 31.9009 53.6336 31.4655 52.8687 31.2051C52.1118 30.9365 51.3346 30.8022 50.5371 30.8022C49.5524 30.8022 48.6654 31.0342 47.876 31.498C47.0947 31.9619 46.4762 32.6536 46.0205 33.5732C45.5729 34.4928 45.3491 35.6444 45.3491 37.0278C45.3491 38.9891 45.7967 40.5272 46.6919 41.6421C47.5952 42.757 48.8363 43.3145 50.415 43.3145C51.3346 43.3145 52.2624 43.111 53.1982 42.7041C54.1341 42.2891 54.9357 41.7397 55.603 41.0562Z" fill="white"/>
</svg>
