<svg width="74" height="74" viewBox="0 0 74 74" fill="none" xmlns="http://www.w3.org/2000/svg">
<circle cx="37" cy="37" r="36" fill="#202020" stroke="#F4F4F4" stroke-width="2"/>
<path d="M27.8691 37.272C27.8691 35.9455 27.682 34.8062 27.3076 33.854C26.9333 32.8937 26.4165 32.1572 25.7573 31.6445C25.0981 31.1237 24.3372 30.8633 23.4746 30.8633C22.6201 30.8633 21.8551 31.1115 21.1797 31.6079C20.5124 32.0962 19.9834 32.792 19.5928 33.6953C19.2103 34.5986 19.019 35.6688 19.019 36.9058C19.019 38.216 19.2062 39.3512 19.5806 40.3115C19.9631 41.2718 20.488 42.0124 21.1553 42.5332C21.8226 43.054 22.5957 43.3145 23.4746 43.3145C24.2884 43.3145 25.0249 43.0744 25.6841 42.5942C26.3514 42.1141 26.8804 41.4224 27.271 40.519C27.6698 39.6157 27.8691 38.5334 27.8691 37.272ZM31.3481 36.9668C31.3481 38.4316 31.1284 39.7419 30.689 40.8975C30.2576 42.0531 29.6676 43.0337 28.9189 43.8394C28.1702 44.6369 27.3158 45.2472 26.3555 45.6704C25.3952 46.0936 24.3942 46.3052 23.3525 46.3052C21.9528 46.3052 20.6589 45.9552 19.4707 45.2554C18.2826 44.5474 17.3304 43.5179 16.6143 42.167C15.8981 40.8079 15.54 39.1559 15.54 37.2109C15.54 35.7461 15.7557 34.4399 16.187 33.2925C16.6265 32.1369 17.2246 31.1562 17.9814 30.3506C18.7383 29.5449 19.5968 28.9305 20.5571 28.5073C21.5256 28.0841 22.5387 27.8726 23.5967 27.8726C24.9883 27.8726 26.27 28.2266 27.4419 28.9346C28.6219 29.6344 29.5659 30.6598 30.2739 32.0107C30.9901 33.3617 31.3481 35.0137 31.3481 36.9668ZM35.1934 44.1689C35.1934 43.5423 35.3927 43.0296 35.7915 42.6309C36.1984 42.2321 36.7111 42.0327 37.3296 42.0327C37.9562 42.0327 38.4689 42.2321 38.8677 42.6309C39.2664 43.0296 39.4658 43.5423 39.4658 44.1689C39.4658 44.8037 39.2664 45.3205 38.8677 45.7192C38.4689 46.1099 37.9562 46.3052 37.3296 46.3052C36.7111 46.3052 36.1984 46.1099 35.7915 45.7192C35.3927 45.3205 35.1934 44.8037 35.1934 44.1689ZM43.4331 40.4458V33.793C43.4331 32.5967 43.425 31.4858 43.4087 30.4604C43.3924 29.4269 43.3395 28.666 43.25 28.1777C43.5186 28.1615 43.8888 28.1452 44.3608 28.1289C44.841 28.1126 45.3618 28.1004 45.9233 28.0923C46.493 28.076 47.0545 28.0679 47.6079 28.0679C48.1694 28.0597 48.6699 28.0557 49.1094 28.0557C49.7848 28.0557 50.5254 28.1208 51.3311 28.251C52.1367 28.373 52.9383 28.6131 53.7358 28.9712C54.5415 29.3211 55.2739 29.8257 55.9331 30.4849C56.6004 31.144 57.1335 32.0026 57.5322 33.0605C57.9391 34.1185 58.1426 35.4206 58.1426 36.9668C58.1426 38.4154 57.9432 39.6646 57.5444 40.7144C57.1538 41.756 56.6248 42.6268 55.9575 43.3267C55.2983 44.0265 54.5618 44.5799 53.748 44.9868C52.9424 45.3937 52.1123 45.6867 51.2578 45.8657C50.4115 46.0366 49.6099 46.1221 48.853 46.1221C48.438 46.1221 47.9172 46.1139 47.2905 46.0977C46.672 46.0895 46.0535 46.0773 45.4351 46.061C44.8166 46.0448 44.2957 46.0285 43.8726 46.0122C43.4575 46.0041 43.25 46 43.25 46C43.3395 45.5117 43.3883 44.7671 43.3965 43.7661C43.4128 42.757 43.425 41.6502 43.4331 40.4458ZM46.9121 30.8511V43.1802C47.1481 43.2046 47.4574 43.2331 47.8398 43.2656C48.2305 43.29 48.6659 43.3022 49.146 43.3022C50.0575 43.3022 50.9364 43.1029 51.7827 42.7041C52.6291 42.3053 53.3249 41.6584 53.8701 40.7632C54.4235 39.868 54.7002 38.6839 54.7002 37.2109C54.7002 35.5915 54.4601 34.3138 53.98 33.3779C53.508 32.4421 52.8569 31.7788 52.0269 31.3882C51.1968 30.9894 50.2528 30.79 49.1948 30.79C48.8612 30.79 48.4624 30.7982 47.9985 30.8145C47.5347 30.8226 47.1725 30.8348 46.9121 30.8511Z" fill="white"/>
</svg>
