<svg width="74" height="74" viewBox="0 0 74 74" fill="none" xmlns="http://www.w3.org/2000/svg">
<circle cx="37" cy="37" r="36" fill="#202020" stroke="#F4F4F4" stroke-width="2"/>
<path d="M16.6997 38.8589V40.6899C16.6997 41.8944 16.7078 42.9604 16.7241 43.8882C16.7485 44.8159 16.8014 45.5199 16.8828 46H13.0376C13.1271 45.5117 13.18 44.8078 13.1963 43.8882C13.2126 42.9604 13.2207 41.8944 13.2207 40.6899V33.793C13.2207 32.5967 13.2126 31.4858 13.1963 30.4604C13.18 29.4269 13.1271 28.666 13.0376 28.1777C13.0376 28.1777 13.2166 28.1737 13.5747 28.1655C13.9409 28.1493 14.4211 28.133 15.0151 28.1167C15.6174 28.1004 16.2765 28.0882 16.9927 28.0801C17.7088 28.0638 18.425 28.0557 19.1411 28.0557C20.4106 28.0557 21.5256 28.251 22.4858 28.6416C23.4461 29.0241 24.1948 29.6019 24.7319 30.375C25.2772 31.1481 25.5498 32.1247 25.5498 33.3047C25.5498 34.5905 25.2324 35.6444 24.5977 36.4663C23.9629 37.2882 23.1328 37.8945 22.1074 38.2852C21.0902 38.6676 19.9997 38.8589 18.8359 38.8589H16.6997ZM16.6997 30.8633V36.2344H18.5918C19.6579 36.2344 20.5042 36.0269 21.1309 35.6118C21.7575 35.1886 22.0708 34.4399 22.0708 33.3657C22.0708 32.4461 21.7819 31.791 21.2041 31.4004C20.6263 31.0016 19.7962 30.8022 18.7139 30.8022C18.2419 30.8022 17.8675 30.8104 17.5908 30.8267C17.3223 30.8348 17.0252 30.847 16.6997 30.8633ZM17.9937 38.2485L21.3018 37.6138C21.3018 37.6138 21.432 37.7969 21.6924 38.1631C21.9528 38.5212 22.2905 38.9932 22.7056 39.5791C23.1287 40.165 23.5804 40.7957 24.0605 41.4712C24.5488 42.1466 25.0249 42.8018 25.4888 43.4365C25.9526 44.0713 26.3595 44.6206 26.7095 45.0845C27.0594 45.5483 27.3035 45.8535 27.4419 46H23.1084L17.9937 38.2485ZM30.4937 44.1689C30.4937 43.5423 30.693 43.0296 31.0918 42.6309C31.4987 42.2321 32.0114 42.0327 32.6299 42.0327C33.2565 42.0327 33.7692 42.2321 34.168 42.6309C34.5667 43.0296 34.7661 43.5423 34.7661 44.1689C34.7661 44.8037 34.5667 45.3205 34.168 45.7192C33.7692 46.1099 33.2565 46.3052 32.6299 46.3052C32.0114 46.3052 31.4987 46.1099 31.0918 45.7192C30.693 45.3205 30.4937 44.8037 30.4937 44.1689ZM54.9077 46L54.6636 44.4131L58.3257 28.1777H62.1099C61.9146 28.6742 61.7152 29.2438 61.5117 29.8867C61.3083 30.5296 61.0397 31.4451 60.7061 32.6333L56.9219 46H54.9077ZM51.1235 28.1777L55.396 44.4131L55.1519 46H53.0767L48.8652 30.0698L47.9497 28.1777H51.1235ZM44.0435 46L43.7993 44.4131L47.9497 28.1777H51.1235L50.208 30.0698L46.0576 46H44.0435ZM40.8696 28.1777L44.5317 44.4131L44.2876 46H42.2124L38.4893 32.6333C38.1637 31.4696 37.8952 30.5581 37.6836 29.8989C37.472 29.2316 37.2726 28.6579 37.0854 28.1777H40.8696Z" fill="white"/>
</svg>
