<svg width="74" height="74" viewBox="0 0 74 74" fill="none" xmlns="http://www.w3.org/2000/svg">
<circle cx="37" cy="37" r="36" fill="#202020" stroke="#F4F4F4" stroke-width="2"/>
<path d="M30.2368 28.9712L29.6875 32.2061C28.7272 31.7259 27.889 31.3719 27.1729 31.144C26.4567 30.9162 25.6673 30.8022 24.8047 30.8022C24.0479 30.8022 23.4212 31.0138 22.9248 31.437C22.4365 31.8521 22.1924 32.3118 22.1924 32.8164C22.1924 33.1663 22.286 33.4715 22.4731 33.7319C22.6603 33.9924 23.0265 34.2487 23.5718 34.501C24.117 34.7533 24.9227 35.0462 25.9888 35.3799C27.6164 35.8844 28.8574 36.5355 29.7119 37.333C30.5745 38.1224 31.0059 39.16 31.0059 40.4458C31.0059 41.6095 30.7088 42.6309 30.1147 43.5098C29.5207 44.3887 28.7272 45.0763 27.7344 45.5728C26.7415 46.061 25.6429 46.3052 24.4385 46.3052C23.1608 46.3052 21.9727 46.1506 20.874 45.8413C19.7754 45.5321 18.8883 45.1374 18.2129 44.6572L18.8232 41.3003C19.694 42.0002 20.6014 42.5129 21.5454 42.8384C22.4894 43.1558 23.4538 43.3145 24.4385 43.3145C24.9674 43.3145 25.4639 43.2209 25.9277 43.0337C26.3997 42.8384 26.7782 42.5576 27.063 42.1914C27.356 41.8252 27.5024 41.3857 27.5024 40.873C27.5024 40.5312 27.4007 40.2139 27.1973 39.9209C26.9938 39.6279 26.5951 39.3309 26.001 39.0298C25.4069 38.7205 24.5199 38.3787 23.3398 38.0044C22.0622 37.5975 21.0897 37.1499 20.4224 36.6616C19.755 36.1733 19.2993 35.6322 19.0552 35.0381C18.8192 34.444 18.7012 33.7848 18.7012 33.0605C18.7012 32.5153 18.8192 31.9416 19.0552 31.3394C19.2912 30.7371 19.6615 30.1756 20.166 29.6548C20.6706 29.1258 21.3135 28.6986 22.0947 28.373C22.8841 28.0394 23.8281 27.8726 24.9268 27.8726C25.9684 27.8726 26.8962 27.9621 27.71 28.1411C28.5238 28.312 29.366 28.5887 30.2368 28.9712ZM34.7412 44.1689C34.7412 43.5423 34.9406 43.0296 35.3394 42.6309C35.7463 42.2321 36.259 42.0327 36.8774 42.0327C37.5041 42.0327 38.0168 42.2321 38.4155 42.6309C38.8143 43.0296 39.0137 43.5423 39.0137 44.1689C39.0137 44.8037 38.8143 45.3205 38.4155 45.7192C38.0168 46.1099 37.5041 46.3052 36.8774 46.3052C36.259 46.3052 35.7463 46.1099 35.3394 45.7192C34.9406 45.3205 34.7412 44.8037 34.7412 44.1689ZM55.7983 41.0562L56.4087 44.291C55.9123 44.6898 55.3101 45.0397 54.6021 45.3408C53.894 45.6419 53.1535 45.8779 52.3804 46.0488C51.6154 46.2197 50.883 46.3052 50.1831 46.3052C48.4985 46.3052 47.05 45.939 45.8374 45.2065C44.6248 44.4741 43.693 43.4365 43.042 42.0938C42.391 40.751 42.0654 39.1641 42.0654 37.333C42.0654 35.7624 42.2892 34.387 42.7368 33.207C43.1925 32.0189 43.8151 31.0301 44.6045 30.2407C45.3939 29.4513 46.2972 28.8613 47.3145 28.4707C48.3398 28.0719 49.4181 27.8726 50.5493 27.8726C51.6724 27.8726 52.6774 27.9987 53.5645 28.251C54.4596 28.5033 55.3467 28.9468 56.2256 29.5815L55.3711 32.5112C54.598 31.9009 53.8289 31.4655 53.064 31.2051C52.3071 30.9365 51.5299 30.8022 50.7324 30.8022C49.7477 30.8022 48.8607 31.0342 48.0713 31.498C47.29 31.9619 46.6715 32.6536 46.2158 33.5732C45.7682 34.4928 45.5444 35.6444 45.5444 37.0278C45.5444 38.9891 45.992 40.5272 46.8872 41.6421C47.7905 42.757 49.0316 43.3145 50.6104 43.3145C51.5299 43.3145 52.4577 43.111 53.3936 42.7041C54.3294 42.2891 55.131 41.7397 55.7983 41.0562Z" fill="white"/>
</svg>
