<svg width="74" height="74" viewBox="0 0 74 74" fill="none" xmlns="http://www.w3.org/2000/svg">
<circle cx="37" cy="37" r="36" fill="#202020" stroke="#F4F4F4" stroke-width="2"/>
<path d="M27.3682 28.9712L26.8188 32.2061C25.8586 31.7259 25.0203 31.3719 24.3042 31.144C23.5881 30.9162 22.7987 30.8022 21.936 30.8022C21.1792 30.8022 20.5526 31.0138 20.0562 31.437C19.5679 31.8521 19.3237 32.3118 19.3237 32.8164C19.3237 33.1663 19.4173 33.4715 19.6045 33.7319C19.7917 33.9924 20.1579 34.2487 20.7031 34.501C21.2484 34.7533 22.054 35.0462 23.1201 35.3799C24.7477 35.8844 25.9888 36.5355 26.8433 37.333C27.7059 38.1224 28.1372 39.16 28.1372 40.4458C28.1372 41.6095 27.8402 42.6309 27.2461 43.5098C26.652 44.3887 25.8586 45.0763 24.8657 45.5728C23.8729 46.061 22.7743 46.3052 21.5698 46.3052C20.2922 46.3052 19.104 46.1506 18.0054 45.8413C16.9067 45.5321 16.0197 45.1374 15.3442 44.6572L15.9546 41.3003C16.8254 42.0002 17.7327 42.5129 18.6768 42.8384C19.6208 43.1558 20.5851 43.3145 21.5698 43.3145C22.0988 43.3145 22.5952 43.2209 23.0591 43.0337C23.5311 42.8384 23.9095 42.5576 24.1943 42.1914C24.4873 41.8252 24.6338 41.3857 24.6338 40.873C24.6338 40.5312 24.5321 40.2139 24.3286 39.9209C24.1252 39.6279 23.7264 39.3309 23.1323 39.0298C22.5382 38.7205 21.6512 38.3787 20.4712 38.0044C19.1935 37.5975 18.221 37.1499 17.5537 36.6616C16.8864 36.1733 16.4307 35.6322 16.1865 35.0381C15.9505 34.444 15.8325 33.7848 15.8325 33.0605C15.8325 32.5153 15.9505 31.9416 16.1865 31.3394C16.4225 30.7371 16.7928 30.1756 17.2974 29.6548C17.8019 29.1258 18.4448 28.6986 19.2261 28.373C20.0155 28.0394 20.9595 27.8726 22.0581 27.8726C23.0998 27.8726 24.0275 27.9621 24.8413 28.1411C25.6551 28.312 26.4974 28.5887 27.3682 28.9712ZM31.8726 44.1689C31.8726 43.5423 32.0719 43.0296 32.4707 42.6309C32.8776 42.2321 33.3903 42.0327 34.0088 42.0327C34.6354 42.0327 35.1481 42.2321 35.5469 42.6309C35.9456 43.0296 36.145 43.5423 36.145 44.1689C36.145 44.8037 35.9456 45.3205 35.5469 45.7192C35.1481 46.1099 34.6354 46.3052 34.0088 46.3052C33.3903 46.3052 32.8776 46.1099 32.4707 45.7192C32.0719 45.3205 31.8726 44.8037 31.8726 44.1689ZM49.292 42.6431L53.479 28.1777H56.6162L55.1514 31.7178L51.0986 46H47.4976L43.4204 31.7178L41.9434 28.1777H45.1172L49.292 42.6431ZM40.7837 28.1777H44.0186L43.5791 31.2905L43.2251 46H39.9292C39.978 45.6582 40.0269 45.0845 40.0757 44.2788C40.1245 43.465 40.1774 42.5129 40.2344 41.4224C40.2913 40.3319 40.3442 39.1844 40.3931 37.98C40.45 36.7674 40.4989 35.5833 40.5396 34.4277C40.5884 33.2721 40.6291 32.2223 40.6616 31.2783C40.7023 30.3343 40.7308 29.5815 40.7471 29.02C40.7715 28.4585 40.7837 28.1777 40.7837 28.1777ZM58.606 46H55.3101L55.0049 31.2905L54.4556 28.1777H57.7515C57.7922 29.5042 57.841 30.908 57.8979 32.3892C57.9549 33.8703 58.0119 35.3392 58.0688 36.7959C58.134 38.2526 58.195 39.6117 58.252 40.873C58.3171 42.1344 58.3781 43.2168 58.4351 44.1201C58.5002 45.0153 58.5571 45.6419 58.606 46Z" fill="white"/>
</svg>
