<svg width="61" height="61" viewBox="0 0 61 61" fill="none" xmlns="http://www.w3.org/2000/svg">
<path d="M16.4842 8.91484C16.4786 9.28444 16.364 9.64414 16.1546 9.94876C15.9452 10.2534 15.6505 10.4893 15.3074 10.6269C14.9644 10.7645 14.5883 10.7977 14.2264 10.7222C13.8646 10.6467 13.5331 10.4659 13.2737 10.2026C13.0143 9.93933 12.8385 9.60522 12.7684 9.24229C12.6983 8.87937 12.737 8.50382 12.8797 8.16284C13.0224 7.82187 13.2627 7.53068 13.5705 7.32586C13.8782 7.12105 14.2395 7.01176 14.6092 7.01172C15.1097 7.01692 15.5879 7.21998 15.9392 7.57657C16.2905 7.93315 16.4864 8.41427 16.4842 8.91484Z" fill="#202020"/>
<path d="M10.8592 8.91484C10.8536 9.28444 10.739 9.64414 10.5296 9.94876C10.3202 10.2534 10.0255 10.4893 9.68242 10.6269C9.33936 10.7645 8.96328 10.7977 8.60143 10.7222C8.23959 10.6467 7.90814 10.4659 7.64872 10.2026C7.3893 9.93933 7.2135 9.60522 7.1434 9.24229C7.0733 8.87937 7.11204 8.50382 7.25474 8.16284C7.39745 7.82187 7.63775 7.53068 7.94545 7.32586C8.25316 7.12105 8.61453 7.01176 8.98417 7.01172C9.48471 7.01692 9.96286 7.21998 10.3142 7.57657C10.6655 7.93315 10.8614 8.41427 10.8592 8.91484Z" fill="#202020"/>
<path d="M22.1092 8.91484C22.1036 9.28444 21.989 9.64414 21.7796 9.94876C21.5702 10.2534 21.2755 10.4893 20.9324 10.6269C20.5894 10.7645 20.2133 10.7977 19.8514 10.7222C19.4896 10.6467 19.1581 10.4659 18.8987 10.2026C18.6393 9.93933 18.4635 9.60522 18.3934 9.24229C18.3233 8.87937 18.362 8.50382 18.5047 8.16284C18.6474 7.82187 18.8877 7.53068 19.1955 7.32586C19.5032 7.12105 19.8645 7.01176 20.2342 7.01172C20.7347 7.01692 21.2129 7.21998 21.5642 7.57657C21.9155 7.93315 22.1114 8.41427 22.1092 8.91484Z" fill="#202020"/>
<path d="M54.9219 3.68359H5.23438C4.73755 3.68508 4.2615 3.8831 3.91019 4.23441C3.55888 4.58572 3.36086 5.06177 3.35938 5.55859V55.2461C3.36086 55.7429 3.55888 56.219 3.91019 56.5703C4.2615 56.9216 4.73755 57.1196 5.23438 57.1211H54.9219C55.4187 57.1196 55.8948 56.9216 56.2461 56.5703C56.5974 56.219 56.7954 55.7429 56.7969 55.2461V5.55859C56.7954 5.06177 56.5974 4.58572 56.2461 4.23441C55.8948 3.8831 55.4187 3.68508 54.9219 3.68359ZM54.9219 55.2461H5.23438V14.1555H54.9219V55.2461ZM54.9219 12.2805H5.23438V5.55859H54.9219V12.2805Z" fill="#202020"/>
<path d="M52.7746 9.69296C52.948 9.86985 53.0443 10.1082 53.0426 10.3558C53.0408 10.6035 52.9411 10.8404 52.7653 11.0148C52.68 11.1023 52.5779 11.1715 52.4651 11.2183C52.3523 11.265 52.2311 11.2883 52.109 11.2867C51.9848 11.2875 51.8617 11.2629 51.7473 11.2146C51.6328 11.1662 51.5294 11.0951 51.4434 11.0055L50.7028 10.2555L49.9621 11.0055C49.8761 11.0951 49.7727 11.1662 49.6583 11.2146C49.5438 11.2629 49.4207 11.2875 49.2965 11.2867C49.1744 11.2883 49.0532 11.265 48.9404 11.2183C48.8276 11.1715 48.7255 11.1023 48.6403 11.0148C48.4644 10.8404 48.3647 10.6035 48.3629 10.3558C48.3612 10.1082 48.4575 9.86985 48.6309 9.69296L49.3903 8.91484L48.6309 8.14609C48.4565 7.96785 48.3596 7.7279 48.3614 7.47853C48.3631 7.22917 48.4634 6.99061 48.6403 6.81484C48.8171 6.64147 49.0554 6.54514 49.3031 6.5469C49.5508 6.54866 49.7877 6.64835 49.9621 6.82421L50.7028 7.58359L51.4434 6.82421C51.6178 6.64835 51.8547 6.54866 52.1024 6.5469C52.3501 6.54514 52.5884 6.64147 52.7653 6.81484C52.9421 6.99061 53.0424 7.22917 53.0442 7.47853C53.0459 7.7279 52.949 7.96785 52.7746 8.14609L52.0153 8.91484L52.7746 9.69296Z" fill="#202020"/>
<path d="M46.4844 8.91406C46.4844 9.1627 46.3856 9.40116 46.2098 9.57697C46.034 9.75279 45.7955 9.85156 45.5469 9.85156H41.7969C41.5482 9.85156 41.3098 9.75279 41.134 9.57697C40.9581 9.40116 40.8594 9.1627 40.8594 8.91406C40.8594 8.66542 40.9581 8.42697 41.134 8.25115C41.3098 8.07533 41.5482 7.97656 41.7969 7.97656H45.5469C45.7955 7.97656 46.034 8.07533 46.2098 8.25115C46.3856 8.42697 46.4844 8.66542 46.4844 8.91406Z" fill="#202020"/>
<path d="M18.968 40.6109L22.3711 38.6516H38.9367C39.4307 38.649 39.9145 38.5113 40.3359 38.2535C40.7573 37.9958 41.1001 37.6277 41.3273 37.1891L46.643 27.1484C46.8902 26.6752 47.0019 26.1427 46.9655 25.61C46.9291 25.0772 46.7461 24.5649 46.4367 24.1297L45.7617 23.1734C45.5123 22.8232 45.1834 22.537 44.8022 22.3382C44.4209 22.1394 43.9979 22.0337 43.568 22.0297H43.5586L21.4617 22.0859L21.3211 20.6422C21.2576 19.9294 20.932 19.2655 20.4073 18.7789C19.8826 18.2922 19.196 18.0175 18.4805 18.0078H13.1836C12.935 18.0078 12.6965 18.1066 12.5207 18.2824C12.3449 18.4582 12.2461 18.6967 12.2461 18.9453C12.2461 19.194 12.3449 19.4324 12.5207 19.6082C12.6965 19.784 12.935 19.8828 13.1836 19.8828H18.4805C18.7323 19.8939 18.9712 19.9976 19.1512 20.1741C19.3311 20.3507 19.4395 20.5875 19.4555 20.8391L21.1242 37.2078L17.9648 39.0359C17.5744 39.3108 17.2562 39.676 17.0375 40.1005C16.8188 40.5249 16.7059 40.996 16.7086 41.4734V41.7359C16.7016 42.4688 16.9706 43.1776 17.4621 43.7212C17.9537 44.2649 18.6318 44.6037 19.3617 44.6703C18.8829 45.3894 18.6284 46.2345 18.6305 47.0984C18.61 47.6536 18.7016 48.2072 18.8999 48.7261C19.0982 49.245 19.3991 49.7186 19.7846 50.1186C20.1701 50.5186 20.6323 50.8367 21.1436 51.0541C21.6548 51.2714 22.2046 51.3834 22.7602 51.3834C23.3157 51.3834 23.8655 51.2714 24.3767 51.0541C24.888 50.8367 25.3502 50.5186 25.7357 50.1186C26.1212 49.7186 26.4221 49.245 26.6204 48.7261C26.8187 48.2072 26.9103 47.6536 26.8898 47.0984C26.8893 46.2421 26.6384 45.4046 26.168 44.6891H34.6711C34.1964 45.4026 33.9451 46.2414 33.9492 47.0984C33.9287 47.6536 34.0204 48.2072 34.2187 48.7261C34.417 49.245 34.7179 49.7186 35.1034 50.1186C35.4889 50.5186 35.9511 50.8367 36.4623 51.0541C36.9736 51.2714 37.5234 51.3834 38.0789 51.3834C38.6344 51.3834 39.1842 51.2714 39.6955 51.0541C40.2067 50.8367 40.6689 50.5186 41.0544 50.1186C41.4399 49.7186 41.7408 49.245 41.9391 48.7261C42.1374 48.2072 42.2291 47.6536 42.2086 47.0984C42.208 46.2421 41.9571 45.4046 41.4867 44.6891H43.1836C43.4322 44.6891 43.6707 44.5903 43.8465 44.4145C44.0223 44.2387 44.1211 44.0002 44.1211 43.7516C44.1211 43.5029 44.0223 43.2645 43.8465 43.0887C43.6707 42.9128 43.4322 42.8141 43.1836 42.8141H19.568C19.295 42.8002 19.0385 42.6792 18.8542 42.4773C18.6699 42.2755 18.5726 42.0091 18.5836 41.7359V41.4734C18.582 41.3105 18.6155 41.1492 18.6819 41.0003C18.7482 40.8515 18.8458 40.7187 18.968 40.6109ZM39.6773 36.3078C39.6074 36.4453 39.5018 36.5614 39.3714 36.6439C39.2411 36.7264 39.0909 36.7722 38.9367 36.7766H22.9617L21.9961 27.2703L44.4586 27.2609L39.6773 36.3078ZM43.5586 23.9047H43.568C43.6994 23.906 43.8286 23.9391 43.9445 24.0012C44.0604 24.0632 44.1596 24.1523 44.2336 24.2609L44.918 25.2172C44.9461 25.2641 44.9742 25.3203 45.0023 25.3766L21.7992 25.3953L21.6586 23.9609L43.5586 23.9047ZM38.0742 44.6891C38.559 44.655 39.0428 44.7677 39.4627 45.0125C39.8825 45.2572 40.2189 45.6228 40.4281 46.0615C40.6372 46.5001 40.7094 46.9916 40.6353 47.4719C40.5611 47.9522 40.3441 48.3991 40.0124 48.7543C39.6807 49.1095 39.2497 49.3566 38.7756 49.4633C38.3015 49.5701 37.8062 49.5317 37.3543 49.353C36.9023 49.1743 36.5146 48.8637 36.2417 48.4615C35.9688 48.0594 35.8233 47.5844 35.8242 47.0984C35.805 46.4811 36.0308 45.8812 36.4523 45.4298C36.8739 44.9783 37.457 44.712 38.0742 44.6891ZM22.7555 44.6891C23.2403 44.655 23.7241 44.7677 24.1439 45.0125C24.5638 45.2572 24.9002 45.6228 25.1093 46.0615C25.3185 46.5001 25.3907 46.9916 25.3165 47.4719C25.2424 47.9522 25.0253 48.3991 24.6936 48.7543C24.3619 49.1095 23.931 49.3566 23.4568 49.4633C22.9827 49.5701 22.4875 49.5317 22.0355 49.353C21.5836 49.1743 21.1959 48.8637 20.923 48.4615C20.6501 48.0594 20.5046 47.5844 20.5055 47.0984C20.4862 46.4811 20.712 45.8812 21.1336 45.4298C21.5552 44.9783 22.1382 44.712 22.7555 44.6891Z" fill="#202020"/>
</svg>
